<?xml version="1.0" encoding="utf-8"?>
<!-- Generator: Adobe Illustrator 23.0.1, SVG Export Plug-In . SVG Version: 6.00 Build 0)  -->
<svg version="1.1" id="Layer_1" xmlns="http://www.w3.org/2000/svg" xmlns:xlink="http://www.w3.org/1999/xlink" x="0px" y="0px"
	 viewBox="0 0 270 48" style="enable-background:new 0 0 270 48;" xml:space="preserve">
<style type="text/css">
	.st0{fill-rule:evenodd;clip-rule:evenodd;fill:#3EB7F9;}
	.st1{fill-rule:evenodd;clip-rule:evenodd;fill:#6ED44C;}
	.st2{fill-rule:evenodd;clip-rule:evenodd;fill:#008BAD;}
	.st3{filter:url(#Adobe_OpacityMaskFilter);}
	.st4{fill-rule:evenodd;clip-rule:evenodd;fill:#FFFFFF;}
	.st5{mask:url(#mask-2_1_);fill-rule:evenodd;clip-rule:evenodd;fill:#008BAD;}
	.st6{filter:url(#Adobe_OpacityMaskFilter_1_);}
	.st7{mask:url(#mask-2_2_);fill-rule:evenodd;clip-rule:evenodd;fill:#008BAD;}
	.st8{filter:url(#Adobe_OpacityMaskFilter_2_);}
	.st9{mask:url(#mask-2_3_);fill-rule:evenodd;clip-rule:evenodd;fill:#008BAD;}
	.st10{filter:url(#Adobe_OpacityMaskFilter_3_);}
	.st11{mask:url(#mask-2_4_);fill-rule:evenodd;clip-rule:evenodd;fill:#008BAD;}
	.st12{filter:url(#Adobe_OpacityMaskFilter_4_);}
	.st13{mask:url(#mask-2_5_);fill-rule:evenodd;clip-rule:evenodd;fill:#008BAD;}
	.st14{filter:url(#Adobe_OpacityMaskFilter_5_);}
	.st15{mask:url(#mask-2_6_);fill-rule:evenodd;clip-rule:evenodd;fill:#008BAD;}
	.st16{filter:url(#Adobe_OpacityMaskFilter_6_);}
	.st17{mask:url(#mask-2_7_);fill-rule:evenodd;clip-rule:evenodd;fill:#008BAD;}
	.st18{filter:url(#Adobe_OpacityMaskFilter_7_);}
	.st19{mask:url(#mask-2_8_);fill-rule:evenodd;clip-rule:evenodd;fill:#008BAD;}
	.st20{filter:url(#Adobe_OpacityMaskFilter_8_);}
	.st21{mask:url(#mask-2_9_);fill-rule:evenodd;clip-rule:evenodd;fill:#008BAD;}
	.st22{filter:url(#Adobe_OpacityMaskFilter_9_);}
	.st23{mask:url(#mask-2_10_);fill-rule:evenodd;clip-rule:evenodd;fill:#008BAD;}
</style>
<title>Group 2</title>
<desc>Created with Sketch.</desc>
<g id="Page-1">
	<g id="collab-to-grow-styleguide" transform="translate(-261.000000, -248.000000)">
		<g id="Group-2" transform="translate(261.000000, 248.000000)">
			<g id="Group">
				<polygon id="Fill-1" class="st0" points="0.2,41 6.8,41 6.8,27.5 0.2,27.5 				"/>
				<polygon id="Fill-2" class="st0" points="10.6,41 17.1,41 17.1,22 10.6,22 				"/>
				<polygon id="Fill-3" class="st0" points="21.1,41 27.7,41 27.7,16.6 21.1,16.6 				"/>
				<polygon id="Fill-4" class="st1" points="35.1,0 29.1,7.5 31.8,7.5 31.8,41 38.4,41 38.4,7.5 41.2,7.5 				"/>
				<path id="Fill-5" class="st0" d="M6.4,21.3c0,1.6-1.3,2.9-2.9,2.9c-1.6,0-2.9-1.3-2.9-2.9s1.3-2.9,2.9-2.9
					C5.1,18.4,6.4,19.7,6.4,21.3"/>
				<path id="Fill-7" class="st0" d="M16.8,15.8c0,1.6-1.3,2.9-2.9,2.9c-1.6,0-2.9-1.3-2.9-2.9s1.3-2.9,2.9-2.9
					C15.5,12.9,16.8,14.2,16.8,15.8"/>
				<path id="Fill-9" class="st0" d="M27.3,10.4c0,1.6-1.3,2.9-2.9,2.9c-1.6,0-2.9-1.3-2.9-2.9s1.3-2.9,2.9-2.9
					C26,7.5,27.3,8.8,27.3,10.4"/>
			</g>
			<g id="Group-26">
				<path id="Fill-11" class="st2" d="M53.7,39.7c-1.4-0.8-2.5-1.9-3.3-3.4c-0.8-1.4-1.1-3.1-1.1-5.1c0-1.9,0.4-3.6,1.2-5.1
					c0.8-1.5,1.9-2.6,3.4-3.5c1.5-0.8,3.2-1.2,5.1-1.2c1.3,0,2.6,0.2,3.9,0.6c1.3,0.4,2.3,1,3,1.7l-1.4,3.4
					c-0.8-0.6-1.6-1.1-2.5-1.5c-0.9-0.3-1.7-0.5-2.6-0.5c-1.7,0-2.9,0.5-3.9,1.5c-0.9,1-1.4,2.5-1.4,4.4c0,1.9,0.5,3.4,1.4,4.4
					c0.9,1,2.2,1.5,3.9,1.5c0.9,0,1.7-0.2,2.6-0.5c0.9-0.3,1.7-0.8,2.5-1.5l1.4,3.3c-0.8,0.7-1.9,1.3-3.1,1.7
					c-1.3,0.4-2.6,0.6-4,0.6C56.9,40.9,55.2,40.5,53.7,39.7"/>
				<path id="Fill-13" class="st2" d="M80.9,35.7c0.8-1,1.2-2.5,1.2-4.5c0-2-0.4-3.5-1.2-4.5c-0.8-1-2-1.5-3.5-1.5
					c-1.5,0-2.7,0.5-3.5,1.5c-0.8,1-1.2,2.5-1.2,4.5c0,2,0.4,3.5,1.2,4.5c0.8,1,2,1.5,3.5,1.5C79,37.2,80.1,36.7,80.9,35.7
					 M72.4,39.7c-1.4-0.8-2.6-1.9-3.3-3.4c-0.8-1.5-1.2-3.2-1.2-5.1c0-2,0.4-3.7,1.2-5.1c0.8-1.5,1.9-2.6,3.3-3.4
					c1.4-0.8,3.1-1.2,5-1.2c1.9,0,3.6,0.4,5,1.2c1.4,0.8,2.5,1.9,3.3,3.4c0.8,1.5,1.2,3.2,1.2,5.1c0,2-0.4,3.7-1.2,5.1
					c-0.8,1.5-1.9,2.6-3.3,3.4c-1.4,0.8-3.1,1.2-5,1.2C75.5,40.9,73.9,40.5,72.4,39.7"/>
				<g id="Clip-16">
				</g>
				<defs>
					<filter id="Adobe_OpacityMaskFilter" filterUnits="userSpaceOnUse" x="89.8" y="13.7" width="4.8" height="26.9">
						<feColorMatrix  type="matrix" values="1 0 0 0 0  0 1 0 0 0  0 0 1 0 0  0 0 0 1 0"/>
					</filter>
				</defs>
				<mask maskUnits="userSpaceOnUse" x="89.8" y="13.7" width="4.8" height="26.9" id="mask-2_1_">
					<g class="st3">
						<polygon id="path-1_1_" class="st4" points="0.2,47.8 269.8,47.8 269.8,0 0.2,0 						"/>
					</g>
				</mask>
				<polygon id="Fill-15" class="st5" points="89.8,40.6 94.5,40.6 94.5,13.7 89.8,13.7 				"/>
				<defs>
					<filter id="Adobe_OpacityMaskFilter_1_" filterUnits="userSpaceOnUse" x="99" y="13.9" width="4.8" height="26.9">
						<feColorMatrix  type="matrix" values="1 0 0 0 0  0 1 0 0 0  0 0 1 0 0  0 0 0 1 0"/>
					</filter>
				</defs>
				<mask maskUnits="userSpaceOnUse" x="99" y="13.9" width="4.8" height="26.9" id="mask-2_2_">
					<g class="st6">
						<polygon id="path-1_2_" class="st4" points="0.2,47.8 269.8,47.8 269.8,0 0.2,0 						"/>
					</g>
				</mask>
				<polygon id="Fill-17" class="st7" points="99,40.8 103.8,40.8 103.8,13.9 99,13.9 				"/>
				<defs>
					<filter id="Adobe_OpacityMaskFilter_2_" filterUnits="userSpaceOnUse" x="108" y="21.7" width="16.5" height="19.4">
						<feColorMatrix  type="matrix" values="1 0 0 0 0  0 1 0 0 0  0 0 1 0 0  0 0 0 1 0"/>
					</filter>
				</defs>
				<mask maskUnits="userSpaceOnUse" x="108" y="21.7" width="16.5" height="19.4" id="mask-2_3_">
					<g class="st8">
						<polygon id="path-1_3_" class="st4" points="0.2,47.8 269.8,47.8 269.8,0 0.2,0 						"/>
					</g>
				</mask>
				<path id="Fill-18" class="st9" d="M118.7,36.4c0.8-0.8,1.2-2,1.2-3.3v-0.8h-0.7c-1.7,0-3,0.1-4,0.2c-0.9,0.2-1.6,0.4-2,0.8
					c-0.4,0.4-0.6,0.9-0.6,1.6c0,0.8,0.3,1.5,0.8,2c0.6,0.5,1.3,0.8,2.1,0.8C116.9,37.7,117.9,37.3,118.7,36.4 M122.6,23.6
					c1.3,1.3,1.9,3.2,1.9,5.9v11.3h-4.5V38c-0.4,1-1.1,1.8-2,2.3c-0.9,0.6-2,0.8-3.2,0.8c-1.2,0-2.4-0.3-3.4-0.8
					c-1-0.5-1.8-1.2-2.4-2.1c-0.6-0.9-0.9-1.9-0.9-3c0-1.4,0.3-2.5,1-3.2c0.7-0.8,1.8-1.4,3.4-1.7c1.6-0.4,3.7-0.5,6.5-0.5h1v-0.9
					c0-1.3-0.3-2.2-0.8-2.7c-0.5-0.6-1.5-0.8-2.7-0.8c-1,0-2,0.2-3.1,0.5c-1.1,0.3-2.1,0.8-3.2,1.4l-1.3-3.3c1-0.7,2.3-1.2,3.8-1.6
					c1.5-0.4,2.9-0.6,4.2-0.6C119.3,21.7,121.3,22.3,122.6,23.6"/>
				<defs>
					<filter id="Adobe_OpacityMaskFilter_3_" filterUnits="userSpaceOnUse" x="128.3" y="13.9" width="19" height="27.2">
						<feColorMatrix  type="matrix" values="1 0 0 0 0  0 1 0 0 0  0 0 1 0 0  0 0 0 1 0"/>
					</filter>
				</defs>
				<mask maskUnits="userSpaceOnUse" x="128.3" y="13.9" width="19" height="27.2" id="mask-2_4_">
					<g class="st10">
						<polygon id="path-1_4_" class="st4" points="0.2,47.8 269.8,47.8 269.8,0 0.2,0 						"/>
					</g>
				</mask>
				<path id="Fill-19" class="st11" d="M141.3,35.8c0.8-1.1,1.3-2.6,1.3-4.5c0-1.9-0.4-3.4-1.2-4.4c-0.8-1-2-1.5-3.5-1.5
					c-1.5,0-2.7,0.5-3.5,1.5c-0.8,1-1.2,2.5-1.2,4.4c0,1.9,0.4,3.4,1.2,4.5c0.8,1,2,1.6,3.5,1.6C139.3,37.4,140.5,36.9,141.3,35.8
					 M143.4,22.9c1.2,0.8,2.2,1.9,2.9,3.4c0.7,1.4,1,3.1,1,5.1s-0.4,3.6-1,5.1c-0.7,1.5-1.7,2.6-2.9,3.4c-1.3,0.8-2.7,1.2-4.3,1.2
					c-1.3,0-2.5-0.3-3.6-0.9c-1.1-0.6-1.9-1.4-2.4-2.4v3h-4.7V13.9h4.8v10.9c0.6-1,1.4-1.8,2.4-2.3c1-0.5,2.2-0.8,3.5-0.8
					C140.7,21.7,142.1,22.1,143.4,22.9"/>
				<defs>
					<filter id="Adobe_OpacityMaskFilter_4_" filterUnits="userSpaceOnUse" x="154.3" y="22" width="8.3" height="15">
						<feColorMatrix  type="matrix" values="1 0 0 0 0  0 1 0 0 0  0 0 1 0 0  0 0 0 1 0"/>
					</filter>
				</defs>
				<mask maskUnits="userSpaceOnUse" x="154.3" y="22" width="8.3" height="15" id="mask-2_5_">
					<g class="st12">
						<polygon id="path-1_5_" class="st4" points="0.2,47.8 269.8,47.8 269.8,0 0.2,0 						"/>
					</g>
				</mask>
				<path id="Fill-20" class="st13" d="M162.6,34.7l-0.1,2.2c-0.5,0-0.9,0.1-1.3,0.1c-1.6,0-2.8-0.4-3.5-1.1
					c-0.8-0.7-1.1-1.8-1.1-3.3v-5h-2.2v-2.2h2.2V22h2.9v3.4h3v2.2h-3v4.9c0,1.5,0.7,2.3,2.1,2.3C161.9,34.7,162.2,34.7,162.6,34.7"
					/>
				<defs>
					<filter id="Adobe_OpacityMaskFilter_5_" filterUnits="userSpaceOnUse" x="163.7" y="25.1" width="11.6" height="11.9">
						<feColorMatrix  type="matrix" values="1 0 0 0 0  0 1 0 0 0  0 0 1 0 0  0 0 0 1 0"/>
					</filter>
				</defs>
				<mask maskUnits="userSpaceOnUse" x="163.7" y="25.1" width="11.6" height="11.9" id="mask-2_6_">
					<g class="st14">
						<polygon id="path-1_6_" class="st4" points="0.2,47.8 269.8,47.8 269.8,0 0.2,0 						"/>
					</g>
				</mask>
				<path id="Fill-21" class="st15" d="M171.6,33.7c0.5-0.6,0.7-1.5,0.7-2.7c0-1.2-0.2-2.1-0.7-2.7c-0.5-0.6-1.2-0.9-2.1-0.9
					c-0.9,0-1.6,0.3-2.2,0.9c-0.5,0.6-0.8,1.5-0.8,2.7c0,1.2,0.2,2.1,0.7,2.7c0.5,0.6,1.2,0.9,2.1,0.9
					C170.4,34.7,171.1,34.4,171.6,33.7 M166.4,36.2c-0.9-0.5-1.6-1.2-2-2.1c-0.5-0.9-0.7-1.9-0.7-3.1c0-1.2,0.2-2.2,0.7-3.1
					c0.5-0.9,1.2-1.6,2-2.1c0.9-0.5,1.9-0.7,3.1-0.7c1.2,0,2.2,0.2,3.1,0.7c0.9,0.5,1.6,1.2,2,2.1c0.5,0.9,0.7,1.9,0.7,3.1
					c0,1.2-0.2,2.2-0.7,3.1c-0.5,0.9-1.2,1.6-2,2.1c-0.9,0.5-1.9,0.7-3.1,0.7C168.3,36.9,167.3,36.7,166.4,36.2"/>
				<defs>
					<filter id="Adobe_OpacityMaskFilter_6_" filterUnits="userSpaceOnUse" x="181.6" y="21.5" width="19.2" height="26.3">
						<feColorMatrix  type="matrix" values="1 0 0 0 0  0 1 0 0 0  0 0 1 0 0  0 0 0 1 0"/>
					</filter>
				</defs>
				<mask maskUnits="userSpaceOnUse" x="181.6" y="21.5" width="19.2" height="26.3" id="mask-2_7_">
					<g class="st16">
						<polygon id="path-1_7_" class="st4" points="0.2,47.8 269.8,47.8 269.8,0 0.2,0 						"/>
					</g>
				</mask>
				<path id="Fill-22" class="st17" d="M194.8,34.9c0.9-1,1.3-2.4,1.3-4.1c0-1.8-0.4-3.1-1.3-4.1c-0.9-1-2-1.5-3.6-1.5
					c-1.5,0-2.7,0.5-3.5,1.5c-0.9,1-1.3,2.4-1.3,4.1c0,1.7,0.4,3.1,1.3,4.1c0.9,1,2,1.5,3.5,1.5C192.8,36.4,193.9,35.9,194.8,34.9z
					 M200.8,22v16.9c0,2.9-0.8,5.1-2.4,6.6c-1.6,1.5-4,2.2-7.2,2.2c-1.6,0-3.2-0.2-4.7-0.6c-1.5-0.4-2.8-1-3.9-1.8l1.3-3.4
					c2.3,1.4,4.7,2.1,7.2,2.1c3.3,0,5-1.6,5-4.9v-2.4c-0.6,1-1.4,1.8-2.4,2.4c-1.1,0.6-2.3,0.9-3.7,0.9c-1.6,0-3.1-0.4-4.3-1.2
					c-1.3-0.8-2.2-1.9-3-3.3c-0.7-1.4-1.1-3-1.1-4.8c0-1.8,0.3-3.5,1-4.9c0.7-1.4,1.7-2.5,3-3.3c1.3-0.8,2.7-1.2,4.3-1.2
					c1.4,0,2.6,0.3,3.7,0.9c1.1,0.6,1.9,1.4,2.4,2.4V22H200.8z"/>
				<defs>
					<filter id="Adobe_OpacityMaskFilter_7_" filterUnits="userSpaceOnUse" x="205.7" y="21.5" width="12.3" height="19.1">
						<feColorMatrix  type="matrix" values="1 0 0 0 0  0 1 0 0 0  0 0 1 0 0  0 0 0 1 0"/>
					</filter>
				</defs>
				<mask maskUnits="userSpaceOnUse" x="205.7" y="21.5" width="12.3" height="19.1" id="mask-2_8_">
					<g class="st18">
						<polygon id="path-1_8_" class="st4" points="0.2,47.8 269.8,47.8 269.8,0 0.2,0 						"/>
					</g>
				</mask>
				<path id="Fill-23" class="st19" d="M218,25.5l-2.8,0.3c-3.2,0.3-4.7,1.9-4.7,4.8v10.1h-4.8V22h4.5v3.3c1-2.2,3-3.5,6-3.7
					l1.4-0.1L218,25.5z"/>
				<defs>
					<filter id="Adobe_OpacityMaskFilter_8_" filterUnits="userSpaceOnUse" x="218.9" y="21.5" width="19" height="19.4">
						<feColorMatrix  type="matrix" values="1 0 0 0 0  0 1 0 0 0  0 0 1 0 0  0 0 0 1 0"/>
					</filter>
				</defs>
				<mask maskUnits="userSpaceOnUse" x="218.9" y="21.5" width="19" height="19.4" id="mask-2_9_">
					<g class="st20">
						<polygon id="path-1_9_" class="st4" points="0.2,47.8 269.8,47.8 269.8,0 0.2,0 						"/>
					</g>
				</mask>
				<path id="Fill-24" class="st21" d="M232,35.7c0.8-1,1.2-2.5,1.2-4.5c0-2-0.4-3.5-1.2-4.5c-0.8-1-2-1.5-3.5-1.5
					c-1.5,0-2.7,0.5-3.5,1.5c-0.8,1-1.2,2.5-1.2,4.5c0,2,0.4,3.5,1.2,4.5c0.8,1,2,1.5,3.5,1.5C230,37.2,231.1,36.7,232,35.7
					 M223.4,39.7c-1.4-0.8-2.6-1.9-3.3-3.4c-0.8-1.5-1.2-3.2-1.2-5.1c0-2,0.4-3.7,1.2-5.1c0.8-1.5,1.9-2.6,3.3-3.4
					c1.4-0.8,3.1-1.2,5-1.2c1.9,0,3.6,0.4,5,1.2c1.4,0.8,2.5,1.9,3.3,3.4c0.8,1.5,1.2,3.2,1.2,5.1c0,2-0.4,3.7-1.2,5.1
					c-0.8,1.5-1.9,2.6-3.3,3.4c-1.4,0.8-3.1,1.2-5,1.2C226.5,40.9,224.9,40.5,223.4,39.7"/>
				<defs>
					<filter id="Adobe_OpacityMaskFilter_9_" filterUnits="userSpaceOnUse" x="237.8" y="22" width="32" height="18.6">
						<feColorMatrix  type="matrix" values="1 0 0 0 0  0 1 0 0 0  0 0 1 0 0  0 0 0 1 0"/>
					</filter>
				</defs>
				<mask maskUnits="userSpaceOnUse" x="237.8" y="22" width="32" height="18.6" id="mask-2_10_">
					<g class="st22">
						<polygon id="path-1_10_" class="st4" points="0.2,47.8 269.8,47.8 269.8,0 0.2,0 						"/>
					</g>
				</mask>
				<polygon id="Fill-25" class="st23" points="265.1,22 269.8,22 262.5,40.6 258.3,40.6 253.7,28.6 249.3,40.6 245.2,40.6 
					237.8,22 242.7,22 247.4,34.9 252.2,22 255.6,22 260.4,35 				"/>
			</g>
		</g>
	</g>
</g>
</svg>
