<?xml version="1.0" encoding="UTF-8"?>
<svg width="24px" height="24px" viewBox="0 0 24 24" version="1.1" xmlns="http://www.w3.org/2000/svg" xmlns:xlink="http://www.w3.org/1999/xlink">
    <!-- Generator: Sketch 52.5 (67469) - http://www.bohemiancoding.com/sketch -->
    <title>Initiation Icon 2</title>
    <desc>Created with Sketch.</desc>
    <g id="Page-1" stroke="none" stroke-width="1" fill="none" fill-rule="evenodd">
        <g id="Development--Inititation-&gt;-User-Information-Filled-State" transform="translate(-19.000000, -80.000000)">
            <g id="Initiation-Icon-2" transform="translate(19.000000, 80.000000)">
                <g id="Initiation-Icon">
                    <g>
                        <path d="M21.9641,20.5 C22.2191,20.058 22.7581,19.901 23.2161,20.096 C23.3861,19.592 23.5001,19.061 23.5001,18.5 C23.5001,17.939 23.3871,17.408 23.2161,16.904 C22.7581,17.099 22.2191,16.942 21.9641,16.5 C21.7091,16.058 21.8421,15.513 22.2401,15.213 C21.5301,14.405 20.5771,13.817 19.4801,13.599 C19.4281,14.102 19.0171,14.5 18.5001,14.5 C17.9831,14.5 17.5721,14.102 17.5201,13.599 C16.4231,13.817 15.4701,14.405 14.7591,15.213 C15.1571,15.513 15.2911,16.058 15.0361,16.5 C14.7811,16.942 14.2421,17.099 13.7841,16.904 C13.6131,17.408 13.5001,17.939 13.5001,18.5 C13.5001,19.061 13.6131,19.592 13.7841,20.096 C14.2421,19.901 14.7811,20.058 15.0361,20.5 C15.2911,20.942 15.1571,21.487 14.7591,21.787 C15.4701,22.595 16.4231,23.183 17.5201,23.401 C17.5721,22.898 17.9831,22.5 18.5001,22.5 C19.0171,22.5 19.4281,22.898 19.4801,23.401 C20.5771,23.183 21.5301,22.595 22.2401,21.787 C21.8421,21.487 21.7091,20.942 21.9641,20.5 L21.9641,20.5 Z" id="Stroke-1668" stroke="#FFFFFF" stroke-linecap="round" stroke-linejoin="round"></path>
                        <path d="M20.5,18.5 C20.5,19.605 19.605,20.5 18.5,20.5 C17.395,20.5 16.5,19.605 16.5,18.5 C16.5,17.395 17.395,16.5 18.5,16.5 C19.605,16.5 20.5,17.395 20.5,18.5 L20.5,18.5 Z" id="Stroke-1670" stroke="#FFFFFF" stroke-linecap="round" stroke-linejoin="round"></path>
                        <path d="M11.5,21.5 L2.5,21.5 C1.395,21.5 0.5,20.605 0.5,19.5 L0.5,2.5 C0.5,1.395 1.395,0.5 2.5,0.5 L19.5,0.5 C20.605,0.5 21.5,1.395 21.5,2.5 L21.5,12 L21.5,14.826087 L22.3423225,15.5 L21.5,16.5 L23,17 C23,17 24.5,18.5 23,20 C21.5,21.5 22.3423225,21.5 22.3423225,21.5 L20,23.5 L16.745,23.5 L14.826087,22 L14,20 L13.8695652,21.5 L11.5,21.5 Z" id="Stroke-1672-Copy" fill-opacity="0.1" fill="#FFFFFF"></path>
                        <path d="M11.5,21.5 L2.5,21.5 C1.395,21.5 0.5,20.605 0.5,19.5 L0.5,2.5 C0.5,1.395 1.395,0.5 2.5,0.5 L19.5,0.5 C20.605,0.5 21.5,1.395 21.5,2.5 L21.5,12" id="Stroke-1672" stroke="#FFFFFF" stroke-linecap="round" stroke-linejoin="round"></path>
                        <path d="M0.5,4.5 L21.5,4.5" id="Stroke-1674" stroke="#FFFFFF" stroke-linecap="round" stroke-linejoin="round"></path>
                        <path d="M3,2.5 C3,2.776 2.776,3 2.5,3 C2.224,3 2,2.776 2,2.5 C2,2.224 2.224,2 2.5,2 C2.776,2 3,2.224 3,2.5" id="Fill-1676" fill="#FFFFFF"></path>
                        <path d="M5,2.5 C5,2.776 4.776,3 4.5,3 C4.224,3 4,2.776 4,2.5 C4,2.224 4.224,2 4.5,2 C4.776,2 5,2.224 5,2.5" id="Fill-1678" fill="#FFFFFF"></path>
                        <path d="M7,2.5 C7,2.776 6.776,3 6.5,3 C6.224,3 6,2.776 6,2.5 C6,2.224 6.224,2 6.5,2 C6.776,2 7,2.224 7,2.5" id="Fill-1680" fill="#FFFFFF"></path>
                    </g>
                </g>
            </g>
        </g>
    </g>
</svg>