<?xml version="1.0" encoding="utf-8"?>
<!-- Generator: Adobe Illustrator 23.0.1, SVG Export Plug-In . SVG Version: 6.00 Build 0)  -->
<svg version="1.1" id="Layer_1" xmlns="http://www.w3.org/2000/svg" xmlns:xlink="http://www.w3.org/1999/xlink" x="0px" y="0px"
	 viewBox="0 0 20 20" style="enable-background:new 0 0 20 20;" xml:space="preserve">
<style type="text/css">
	.st0{fill:#B2B2B2;}
</style>
<g>
	<g>
		<path class="st0" d="M9.6,0.5c0.3,0,0.6,0,0.9,0h0.1c0.5,0,1,0.1,1.5,0.2c2.4,0.5,4.3,1.8,5.7,3.8c1,1.3,1.5,2.8,1.7,4.5
			c0,0.2,0,0.4,0.1,0.6c0,0.3,0,0.6,0,0.9v0.1c0,0.5-0.1,1.1-0.2,1.6c-0.6,2.5-1.9,4.4-4,5.8c-1.3,0.9-2.7,1.4-4.2,1.5
			c-0.2,0-0.4,0-0.6,0.1c-0.3,0-0.6,0-0.9,0H9.6c-0.9,0-1.9-0.2-2.8-0.6c-2.1-0.8-3.8-2.2-4.9-4.1c-0.7-1.2-1.1-2.4-1.2-3.8
			c0-0.2,0-0.4-0.1-0.6c0-0.3,0-0.6,0-0.9c0-0.1,0-0.3,0-0.4c0.1-0.9,0.3-1.8,0.6-2.7C2,4.4,3.4,2.8,5.4,1.7c1.1-0.6,2.3-1,3.5-1.1
			C9.2,0.5,9.4,0.5,9.6,0.5z M10,18c4.4,0,8-3.6,8-8s-3.6-8-8-8s-8,3.6-8,8S5.6,18,10,18z"/>
	</g>
	<path class="st0" d="M9.7,15.2L9.7,15.2c-0.6,0-1.1-0.5-1.1-1.1V6.4c0-0.6,0.5-1.1,1.1-1.1l0,0c0.6,0,1.1,0.5,1.1,1.1v7.7
		C10.8,14.7,10.3,15.2,9.7,15.2z"/>
	<path class="st0" d="M4.8,10.3L4.8,10.3c0-0.6,0.5-1.1,1.1-1.1h7.7c0.6,0,1.1,0.5,1.1,1.1l0,0c0,0.6-0.5,1.1-1.1,1.1H5.9
		C5.3,11.4,4.8,10.9,4.8,10.3z"/>
</g>
</svg>
