<?xml version="1.0" encoding="utf-8"?>
<!-- Generator: Adobe Illustrator 23.0.1, SVG Export Plug-In . SVG Version: 6.00 Build 0)  -->
<svg version="1.1" id="Layer_1" xmlns="http://www.w3.org/2000/svg" xmlns:xlink="http://www.w3.org/1999/xlink" x="0px" y="0px"
	 viewBox="0 0 20 20" style="enable-background:new 0 0 20 20;" xml:space="preserve">
<style type="text/css">
	.st0{fill:#42BDF4;}
	.st1{fill:#FFFFFF;stroke:#FFFFFF;stroke-miterlimit:10;}
</style>
<g>
	<g>
		<path class="st0" d="M9.53,0.5c0.28,0,0.57,0,0.85,0c0.04,0.01,0.08,0.01,0.12,0.02c0.5,0.03,1,0.09,1.49,0.2
			c2.37,0.54,4.27,1.8,5.69,3.77c0.97,1.34,1.53,2.85,1.71,4.5c0.02,0.2,0.04,0.39,0.06,0.59c0,0.28,0,0.57,0,0.85
			c-0.01,0.04-0.01,0.08-0.02,0.11c-0.03,0.54-0.1,1.07-0.22,1.59c-0.59,2.46-1.94,4.4-4.04,5.81c-1.27,0.85-2.68,1.35-4.2,1.51
			c-0.2,0.02-0.39,0.04-0.59,0.06c-0.28,0-0.57,0-0.85,0c-0.04-0.01-0.08-0.01-0.11-0.02c-0.94-0.05-1.86-0.24-2.75-0.57
			c-2.12-0.8-3.76-2.18-4.92-4.12c-0.69-1.17-1.1-2.43-1.24-3.78c-0.02-0.2-0.04-0.39-0.06-0.59c0-0.28,0-0.57,0-0.85
			c0.01-0.13,0.03-0.26,0.04-0.38c0.08-0.93,0.28-1.84,0.64-2.7C1.98,4.38,3.41,2.77,5.4,1.66c1.1-0.61,2.28-0.97,3.53-1.11
			C9.13,0.54,9.33,0.52,9.53,0.5z"/>
	</g>
</g>
<path class="st1" d="M14.91,9.76l-3.03-3.11c-0.18-0.19-0.48-0.19-0.67,0c-0.18,0.19-0.18,0.5,0,0.69l2.22,2.28H5.33
	c-0.26,0-0.47,0.22-0.47,0.49c0,0.27,0.21,0.49,0.47,0.49h8.09l-2.22,2.28c-0.18,0.19-0.18,0.5,0,0.69
	c0.09,0.09,0.21,0.14,0.33,0.14c0.12,0,0.24-0.05,0.33-0.14l3.03-3.11C15.09,10.26,15.09,9.95,14.91,9.76z"/>
</svg>
