<?xml version="1.0" encoding="UTF-8"?>
<svg width="218px" height="192px" viewBox="0 0 218 192" version="1.1" xmlns="http://www.w3.org/2000/svg" xmlns:xlink="http://www.w3.org/1999/xlink">
    <!-- Generator: Sketch 52.4 (67378) - http://www.bohemiancoding.com/sketch -->
    <title>undraw_transfer_files_6tns</title>
    <desc>Created with Sketch.</desc>
    <defs>
        <linearGradient x1="50.0015421%" y1="100.002232%" x2="50.0015421%" y2="0%" id="linearGradient-1">
            <stop stop-color="#808080" stop-opacity="0.25" offset="0%"></stop>
            <stop stop-color="#808080" stop-opacity="0.12" offset="54%"></stop>
            <stop stop-color="#808080" stop-opacity="0.1" offset="100%"></stop>
        </linearGradient>
        <rect id="path-2" x="134.125172" y="78.0020558" width="76.6450343" height="106.432257"></rect>
        <filter x="-9.1%" y="-4.7%" width="118.3%" height="113.2%" filterUnits="objectBoundingBox" id="filter-3">
            <feOffset dx="0" dy="2" in="SourceAlpha" result="shadowOffsetOuter1"></feOffset>
            <feGaussianBlur stdDeviation="2" in="shadowOffsetOuter1" result="shadowBlurOuter1"></feGaussianBlur>
            <feColorMatrix values="0 0 0 0 0.243137255   0 0 0 0 0.717647059   0 0 0 0 0.976470588  0 0 0 0.2 0" type="matrix" in="shadowBlurOuter1"></feColorMatrix>
        </filter>
        <linearGradient x1="50.0015421%" y1="100%" x2="50.0015421%" y2="0%" id="linearGradient-4">
            <stop stop-color="#808080" stop-opacity="0.25" offset="0%"></stop>
            <stop stop-color="#808080" stop-opacity="0.12" offset="54%"></stop>
            <stop stop-color="#808080" stop-opacity="0.1" offset="100%"></stop>
        </linearGradient>
        <linearGradient x1="49.9984579%" y1="100%" x2="49.9984579%" y2="0%" id="linearGradient-5">
            <stop stop-color="#808080" stop-opacity="0.25" offset="0%"></stop>
            <stop stop-color="#808080" stop-opacity="0.12" offset="54%"></stop>
            <stop stop-color="#808080" stop-opacity="0.1" offset="100%"></stop>
        </linearGradient>
        <rect id="path-6" x="1.0017849" y="0.801740435" width="76.6450343" height="106.432257"></rect>
        <filter x="-9.1%" y="-4.7%" width="118.3%" height="113.2%" filterUnits="objectBoundingBox" id="filter-7">
            <feOffset dx="0" dy="2" in="SourceAlpha" result="shadowOffsetOuter1"></feOffset>
            <feGaussianBlur stdDeviation="2" in="shadowOffsetOuter1" result="shadowBlurOuter1"></feGaussianBlur>
            <feColorMatrix values="0 0 0 0 0.243137255   0 0 0 0 0.717647059   0 0 0 0 0.976470588  0 0 0 0.2 0" type="matrix" in="shadowBlurOuter1"></feColorMatrix>
        </filter>
    </defs>
    <g id="Page-1" stroke="none" stroke-width="1" fill="none" fill-rule="evenodd">
        <g id="Development--Empty-Dashboard" transform="translate(-642.000000, -303.000000)">
            <g id="undraw_transfer_files_6tns" transform="translate(645.000000, 304.000000)">
                <g id="Group" opacity="0.5" transform="translate(132.924485, 77.015672)" fill="url(#linearGradient-1)">
                    <rect id="Rectangle" x="0.198901602" y="0.184643252" width="78.6461785" height="108.837479"></rect>
                </g>
                <g id="Rectangle">
                    <use fill="black" fill-opacity="1" filter="url(#filter-3)" xlink:href="#path-2"></use>
                    <use fill="#3EB7F9" fill-rule="evenodd" xlink:href="#path-2"></use>
                </g>
                <g id="Group" opacity="0.5" transform="translate(125.647597, 73.128446)" fill="url(#linearGradient-1)">
                    <rect id="Rectangle" x="0.213455378" y="0.162777603" width="78.6461785" height="108.837479"></rect>
                </g>
                <rect id="Rectangle" fill="#F1FAFF" x="126.862838" y="74.0929638" width="76.6450343" height="106.432257"></rect>
                <g id="Group" opacity="0.5" transform="translate(118.855835, 69.484171)" fill="url(#linearGradient-4)">
                    <rect id="Rectangle" x="0.174645309" y="0.225945032" width="78.6461785" height="108.837479"></rect>
                </g>
                <rect id="Rectangle" fill="#FFFFFF" x="120.032265" y="70.5118565" width="76.6450343" height="106.432257"></rect>
                <rect id="Rectangle" fill="#008AAB" x="127.081144" y="88.2764809" width="21.2485126" height="1.95333124"></rect>
                <rect id="Rectangle" fill="#E0E0E0" x="127.081144" y="95.1179993" width="62.4429748" height="1.95333124"></rect>
                <rect id="Rectangle" fill="#E0E0E0" x="127.081144" y="101.957088" width="48.5659497" height="1.95333124"></rect>
                <rect id="Rectangle" fill="#E0E0E0" x="127.081144" y="108.798607" width="57.3467277" height="1.95333124"></rect>
                <rect id="Rectangle" fill="#E0E0E0" x="133.695835" y="115.640125" width="50.7344622" height="1.95333124"></rect>
                <rect id="Rectangle" fill="#3EB7F9" opacity="0.3" x="138.573776" y="122.479214" width="40.0034783" height="1.95333124"></rect>
                <rect id="Rectangle" fill="#E0E0E0" x="133.695835" y="129.320732" width="49.7593593" height="1.95333124"></rect>
                <rect id="Rectangle" fill="#E0E0E0" x="127.081144" y="136.159821" width="62.4429748" height="1.95333124"></rect>
                <rect id="Rectangle" fill="#E0E0E0" x="127.081144" y="143.001339" width="62.4429748" height="1.95333124"></rect>
                <rect id="Rectangle" fill="#E0E0E0" x="127.081144" y="149.842858" width="62.4429748" height="1.95333124"></rect>
                <rect id="Rectangle" fill="#E0E0E0" x="127.081144" y="156.681947" width="62.4429748" height="1.95333124"></rect>
                <g id="Group" opacity="0.5" fill="url(#linearGradient-5)">
                    <rect id="Rectangle" x="0" y="0" width="78.6461785" height="108.837479"></rect>
                </g>
                <g id="Rectangle">
                    <use fill="black" fill-opacity="1" filter="url(#filter-7)" xlink:href="#path-6"></use>
                    <use fill="#FFFFFF" fill-rule="evenodd" xlink:href="#path-6"></use>
                </g>
                <rect id="Rectangle" fill="#E0E0E0" x="14.2287414" y="39.0884905" width="51.1686499" height="1.95333124"></rect>
                <rect id="Rectangle" fill="#E0E0E0" x="14.6629291" y="45.9300088" width="50.7344622" height="1.95333124"></rect>
                <rect id="Rectangle" fill="#E0E0E0" x="19.5408696" y="52.7715272" width="40.0034783" height="1.95333124"></rect>
                <rect id="Rectangle" fill="#E0E0E0" x="14.6629291" y="59.6106161" width="49.7593593" height="1.95333124"></rect>
                <rect id="Rectangle" fill="#E0E0E0" x="14.2287414" y="66.4521345" width="50.7344622" height="1.95333124"></rect>
                <rect id="Rectangle" fill="#E0E0E0" x="14.2287414" y="73.2912233" width="50.7344622" height="1.95333124"></rect>
                <rect id="Rectangle" fill="#E0E0E0" x="14.2287414" y="80.1327417" width="50.7344622" height="1.95333124"></rect>
                <rect id="Rectangle" fill="#E0E0E0" x="14.2287414" y="86.9742601" width="50.7344622" height="1.95333124"></rect>
                <rect id="Rectangle" fill="#3EB7F9" x="14.9321739" y="15.9619232" width="13.6587185" height="11.727276"></rect>
                <rect id="Rectangle" fill="#E0E0E0" x="38.3467735" y="17.9152544" width="25.3672311" height="1.95333124"></rect>
                <rect id="Rectangle" fill="#008AAB" opacity="0.3" x="38.3467735" y="24.7567728" width="25.3672311" height="1.95333124"></rect>
                <g id="Group" opacity="0.3" transform="translate(88.778032, 24.538116)" stroke-width="0.729">
                    <path d="M0.0363844394,0.218656482 L1.49176201,0.218656482" id="Path" stroke="#3AD29F"></path>
                    <path d="M4.32732265,0.218656482 L59.6049886,0.218656482" id="Path" stroke="#008AAB" stroke-dasharray="2.84067006111145"></path>
                    <polyline id="Path" stroke="#3AD29F" points="61.0239817 0.218656482 62.4793593 0.218656482 62.4793593 1.67636636"></polyline>
                    <path d="M62.4793593,4.78614744 L62.4793593,34.3412153" id="Path" stroke="#008AAB" stroke-dasharray="3.110400080680847"></path>
                    <path d="M62.4793593,35.8961058 L62.4793593,37.3538157" id="Path" stroke="#3AD29F"></path>
                </g>
                <g id="Group" opacity="0.3" transform="translate(48.512586, 117.588597)" stroke-width="0.729">
                    <path d="M62.7413272,37.1400183 L61.2859497,37.1400183" id="Path" stroke="#3AD29F"></path>
                    <path d="M58.450389,37.1400183 L3.17272311,37.1400183" id="Path" stroke="#008AAB" stroke-dasharray="2.84067006111145"></path>
                    <polyline id="Path" stroke="#3AD29F" points="1.75372998 37.1400183 0.298352403 37.1400183 0.298352403 35.6823084"></polyline>
                    <path d="M0.298352403,32.5700978 L0.298352403,3.01745945" id="Path" stroke="#008AAB" stroke-dasharray="3.110400080680847"></path>
                    <path d="M0.298352403,1.46256891 L0.298352403,0.00485903294" id="Path" stroke="#3AD29F"></path>
                </g>
                <path d="M124.665217,40.3639866 C124.254326,40.1791331 124.04604,39.7159978 124.180092,39.2852813 C124.190463,39.2529615 124.196976,39.2195253 124.199497,39.1856711 C124.212211,38.988217 124.093817,38.8058817 123.908459,38.737453 C123.7231,38.6690242 123.514882,38.7307834 123.396613,38.8892701 C123.3771,38.9164343 123.360819,38.9457872 123.348101,38.9767327 C123.163543,39.3882825 122.701149,39.596902 122.271121,39.462636 C122.238853,39.4522482 122.20547,39.445724 122.17167,39.4431999 C121.974532,39.4304652 121.792489,39.5490492 121.724169,39.7347043 C121.65585,39.9203594 121.717511,40.1289119 121.875744,40.2473698 C121.902864,40.2669146 121.93217,40.2832218 121.963066,40.2959602 C122.373958,40.4808137 122.582243,40.943949 122.448192,41.3746655 C122.437821,41.4069853 122.431307,41.4404215 122.428787,41.4742756 C122.416073,41.6717298 122.534467,41.854065 122.719825,41.9224938 C122.905183,41.9909226 123.113402,41.9291633 123.23167,41.7706767 C123.251184,41.7435124 123.267465,41.7141596 123.280183,41.6832141 C123.464741,41.2716642 123.927135,41.0630447 124.357162,41.1973108 C124.389431,41.2076986 124.422813,41.2142227 124.456613,41.2167469 C124.653752,41.2294816 124.835795,41.1108976 124.904114,40.9252424 C124.972434,40.7395873 124.910773,40.5310349 124.75254,40.4125769 C124.725419,40.3930321 124.696113,40.376725 124.665217,40.3639866 Z" id="Path" fill="#008AAB" opacity="0.3"></path>
                <path d="M93.4206865,62.5041702 C92.5411275,62.1219658 92.0904034,61.1373726 92.3752403,60.2204247 C92.3971592,60.1526498 92.4110006,60.0825169 92.416476,60.0114863 C92.4464148,59.592426 92.1958562,59.2041049 91.8020962,59.0593071 C91.4083362,58.9145092 90.9664346,59.0481911 90.7185355,59.3871006 C90.6766515,59.4443336 90.6416431,59.5063082 90.6142334,59.5717438 C90.2330978,60.4479754 89.2563513,60.8984587 88.3438444,60.6188654 C88.276178,60.5969113 88.2061572,60.5830478 88.1352403,60.5775636 C87.7168505,60.5475769 87.3291507,60.7985369 87.1845845,61.192928 C87.0400183,61.587319 87.1734864,62.0299288 87.5118535,62.2782252 C87.568995,62.3201762 87.6308705,62.3552408 87.6962014,62.3826944 C88.571031,62.7644408 89.0207936,63.7427526 88.7416476,64.6567218 C88.7197286,64.7244967 88.7058873,64.7946297 88.7004119,64.8656602 C88.6704731,65.2847205 88.9210317,65.6730416 89.3147917,65.8178394 C89.7085517,65.9626373 90.1504533,65.8289554 90.3983524,65.4900459 C90.4402363,65.4328129 90.4752448,65.3708383 90.5026545,65.3054027 C90.8837901,64.4291711 91.8605366,63.9786878 92.7730435,64.2582811 C92.8407099,64.2802352 92.9107307,64.2940987 92.9816476,64.2995829 C93.4000374,64.3295696 93.7877372,64.0786096 93.9323033,63.6842185 C94.0768695,63.2898275 93.9434015,62.8472177 93.6050343,62.5989213 C93.5474214,62.5603524 93.4855644,62.5285591 93.4206865,62.5041702 Z" id="Path" fill="#008AAB" opacity="0.3"></path>
                <path d="M112.585584,126.206092 C111.650646,126.396206 110.722006,125.853806 110.426773,124.945173 C110.406191,124.877272 110.377695,124.812036 110.341876,124.750812 C110.125287,124.395243 109.701385,124.224199 109.299192,124.330091 C108.897,124.435983 108.61187,124.793705 108.597849,125.20999 C108.596006,125.280965 108.602519,125.35191 108.617254,125.421358 C108.807064,126.357794 108.265531,127.287922 107.358352,127.583628 C107.29056,127.604244 107.225428,127.632785 107.164302,127.668661 C106.809302,127.885598 106.638532,128.310179 106.744255,128.713016 C106.849977,129.115853 107.207127,129.40144 107.622746,129.415483 C107.693607,129.417329 107.764439,129.410806 107.833776,129.396047 C108.768713,129.205933 109.697353,129.748333 109.992586,130.656966 C110.013169,130.724867 110.041664,130.790103 110.077483,130.851328 C110.294072,131.206896 110.717974,131.37794 111.120167,131.272048 C111.522359,131.166156 111.80749,130.808434 111.82151,130.392149 C111.823353,130.321174 111.81684,130.250229 111.802105,130.180781 C111.612295,129.244345 112.153828,128.314217 113.061007,128.018511 C113.128799,127.997895 113.193931,127.969355 113.255057,127.933478 C113.610057,127.716542 113.780827,127.29196 113.675105,126.889123 C113.569382,126.486286 113.212232,126.200699 112.796613,126.186656 C112.725752,126.18481 112.65492,126.191334 112.585584,126.206092 Z" id="Path" fill="#008AAB" opacity="0.3"></path>
                <path d="M74.2121281,138.759404 C73.8012368,138.57455 73.5929511,138.111415 73.7270023,137.680698 C73.7373735,137.648379 73.7438872,137.614942 73.7464073,137.581088 C73.7591217,137.383634 73.6407273,137.201299 73.4553693,137.13287 C73.2700112,137.064441 73.0617925,137.1262 72.943524,137.284687 C72.9240105,137.311851 72.9077295,137.341204 72.8950114,137.37215 C72.7104537,137.7837 72.2480594,137.992319 71.818032,137.858053 C71.7857639,137.847665 71.7523813,137.841141 71.7185812,137.838617 C71.521443,137.825882 71.3393995,137.944466 71.2710802,138.130121 C71.2027609,138.315776 71.2644214,138.524329 71.4226545,138.642787 C71.4497752,138.662332 71.4790811,138.678639 71.5099771,138.691377 C71.9208685,138.876231 72.1291542,139.339366 71.995103,139.770082 C71.9847317,139.802402 71.9782181,139.835838 71.9756979,139.869693 C71.9629836,140.067147 72.0813779,140.249482 72.266736,140.317911 C72.4520941,140.38634 72.6603128,140.32458 72.7785812,140.166094 C72.7980948,140.138929 72.8143758,140.109577 72.8270938,140.078631 C73.0116516,139.667081 73.4740459,139.458462 73.9040732,139.592728 C73.9363413,139.603116 73.969724,139.60964 74.003524,139.612164 C74.2006623,139.624899 74.3827058,139.506315 74.451025,139.320659 C74.5193443,139.135004 74.4576839,138.926452 74.2994508,138.807994 C74.27233,138.788449 74.2430242,138.772142 74.2121281,138.759404 Z" id="Path" fill="#6C63FF" opacity="0.3"></path>
            </g>
        </g>
    </g>
</svg>