<?xml version="1.0" encoding="UTF-8"?>
<svg width="195px" height="180px" viewBox="0 0 195 180" version="1.1" xmlns="http://www.w3.org/2000/svg" xmlns:xlink="http://www.w3.org/1999/xlink">
    <!-- Generator: Sketch 52.4 (67378) - http://www.bohemiancoding.com/sketch -->
    <title>User Permissions Graphic</title>
    <desc>Created with Sketch.</desc>
    <defs>
        <linearGradient x1="50%" y1="100%" x2="50%" y2="0.00661988614%" id="linearGradient-1">
            <stop stop-color="#808080" stop-opacity="0.25" offset="0%"></stop>
            <stop stop-color="#808080" stop-opacity="0.12" offset="54%"></stop>
            <stop stop-color="#808080" stop-opacity="0.1" offset="100%"></stop>
        </linearGradient>
        <linearGradient x1="50%" y1="99.9933801%" x2="50%" y2="0%" id="linearGradient-2">
            <stop stop-color="#808080" stop-opacity="0.25" offset="0%"></stop>
            <stop stop-color="#808080" stop-opacity="0.12" offset="54%"></stop>
            <stop stop-color="#808080" stop-opacity="0.1" offset="100%"></stop>
        </linearGradient>
        <linearGradient x1="50%" y1="100%" x2="50%" y2="0%" id="linearGradient-3">
            <stop stop-color="#808080" stop-opacity="0.25" offset="0%"></stop>
            <stop stop-color="#808080" stop-opacity="0.12" offset="54%"></stop>
            <stop stop-color="#808080" stop-opacity="0.1" offset="100%"></stop>
        </linearGradient>
        <linearGradient x1="49.9526257%" y1="100.011067%" x2="49.9526257%" y2="0.000593432976%" id="linearGradient-4">
            <stop stop-color="#808080" stop-opacity="0.25" offset="0%"></stop>
            <stop stop-color="#808080" stop-opacity="0.12" offset="54%"></stop>
            <stop stop-color="#808080" stop-opacity="0.1" offset="100%"></stop>
        </linearGradient>
        <linearGradient x1="50.0013912%" y1="100%" x2="50.0013912%" y2="-0.00293506612%" id="linearGradient-5">
            <stop stop-color="#808080" stop-opacity="0.25" offset="0%"></stop>
            <stop stop-color="#808080" stop-opacity="0.12" offset="54%"></stop>
            <stop stop-color="#808080" stop-opacity="0.1" offset="100%"></stop>
        </linearGradient>
    </defs>
    <g id="Page-1" stroke="none" stroke-width="1" fill="none" fill-rule="evenodd">
        <g id="Development--Inititation-&gt;-User-Permissions" transform="translate(-120.000000, -176.000000)">
            <g id="User-Permissions-Graphic" transform="translate(120.055319, 176.000000)">
                <g id="Group" opacity="0.5" transform="translate(74.000000, 8.000000)" fill="url(#linearGradient-1)">
                    <circle id="Oval" cx="18.0142105" cy="18.045" r="17.8886842"></circle>
                </g>
                <circle id="Oval" fill="#F5F5F5" cx="91.5" cy="25.5" r="17.5"></circle>
                <path d="M102,27.4157331 C102,33.1674258 97.9589552,36 92.7126866,36 C87.4664179,36 83,33.1697649 83,27.4157331 C83,21.6617013 87.2537313,17 92.5,17 C97.7462687,17 102,21.6617013 102,27.4157331 Z" id="Path" fill="#333333"></path>
                <path d="M92.7080626,41.9999824 C96.0111316,42.0042062 99.2427303,41.2471254 102,39.8231193 C101.375812,37.1575361 99.0070999,37 99.0070999,37 L85.9357401,37 C85.9357401,37 83.699639,37.1432147 83,39.595766 C85.8412216,41.162979 89.2325719,42.0028521 92.7080626,41.9999824 Z" id="Path" fill="#3EB7F9"></path>
                <path d="M90,34 L95,34 L95,37.1836285 C95.0000132,37.6673968 94.7491479,38.1311813 94.3030268,38.4721503 C93.8569057,38.8131193 93.2523934,39.0030973 92.6235243,38.9999618 L92.3436817,38.9999618 C91.046478,38.9925699 89.9999644,38.1815309 90,37.1836285 L90,34 Z" id="Path" fill="#000000" opacity="0.1"></path>
                <path d="M90.4384514,34 L94.5484483,34 C94.7978334,34 95,34.1547472 95,34.3456376 L95,37.1879195 C95,37.6685131 94.7505826,38.1294229 94.3066168,38.4692539 C93.862651,38.8090849 93.2605042,39 92.6326418,39 L92.352066,39 C91.0506063,38.993543 90.0000244,38.1841351 90.0000517,37.1879195 L90.0000517,34.3506711 C89.9963519,34.1616935 90.1916413,34.0054836 90.4384514,34 Z" id="Path" fill="#FDA57D"></path>
                <path d="M90,34.5692853 C91.6115067,35.1392669 93.385357,35.1436734 95,34.581706 L95,34 L90,34 L90,34.5692853 Z" id="Path" fill="#000000" opacity="0.1"></path>
                <circle id="Oval" fill="#FDA57D" cx="92" cy="27" r="8"></circle>
                <path d="M83,27 C83,27 87.9534382,26.5433039 91.7055281,22.8823394 C91.7055281,22.8823394 96.6589663,27.0369794 100.110112,26.5802834 C100.110112,26.5802834 102.11236,24.9790736 100.110112,23.3778639 C98.1078652,21.7766542 96.5570337,19.7575768 93.9067865,20.0238288 C91.2565393,20.2900807 88.0019775,20.404717 86.601618,21.3587865 C85.2012584,22.3128561 83,27 83,27 Z" id="Path" fill="#000000" opacity="0.1"></path>
                <path d="M83,27 C83,27 87.9534382,26.5433039 91.7055281,22.8823394 C91.7055281,22.8823394 96.6589663,27.0369794 100.110112,26.5802834 C100.110112,26.5802834 102.11236,24.9790736 100.110112,23.3778639 C98.1078652,21.7766542 96.5570337,19.7575768 93.9067865,20.0238288 C91.2565393,20.2900807 88.0019775,20.404717 86.601618,21.3587865 C85.2012584,22.3128561 83,27 83,27 Z" id="Path" fill="#333333"></path>
                <ellipse id="Oval" fill="#FDA57D" cx="85" cy="27.5" rx="1" ry="1.5"></ellipse>
                <ellipse id="Oval" fill="#FDA57D" cx="100" cy="27.5" rx="1" ry="1.5"></ellipse>
                <g id="Group" opacity="0.5" transform="translate(150.000000, 9.000000)" fill="url(#linearGradient-2)">
                    <circle id="Oval" cx="17.9786842" cy="17.9005263" r="17.8886842"></circle>
                </g>
                <circle id="Oval" fill="#F5F5F5" cx="168.5" cy="26.5" r="17.5"></circle>
                <path d="M167.711416,43.9999726 C171.013293,44.0042009 174.243725,43.2463075 177,41.8207731 C176.378323,39.1523289 174.00818,39 174.00818,39 L160.934681,39 C160.934681,39 158.699387,39.1433684 158,41.5985521 C160.842918,43.1665982 164.235583,44.00553 167.711416,43.9999726 Z" id="Path" fill="#3EB7F9"></path>
                <ellipse id="Oval" fill="#72351C" cx="167.5" cy="26" rx="8.5" ry="9"></ellipse>
                <path d="M166.002185,35 L171,35 L170.999999,38.1825824 C171.000579,38.6644368 170.752178,39.1267085 170.309503,39.4675889 C169.866828,39.8084692 169.266186,40.0000002 168.63986,40 L168.360139,40 C167.05667,40 166,39.1870671 166,38.1842636 L166,35 L166.002185,35 Z" id="Path" fill="#000000" opacity="0.1"></path>
                <path d="M166.45236,35 L170.549825,35 C170.79845,35 171,35.1551116 171,35.3464514 L171,38.1836529 C171,38.6653781 170.751343,39.1273731 170.308731,39.4680042 C169.866119,39.8086354 169.265808,40 168.63986,40 L168.36014,40 C167.734192,40 167.133881,39.8086354 166.691269,39.4680042 C166.248657,39.1273731 166,38.6653781 166,38.1836529 L166,35.3464514 C166,35.1551116 166.20155,35 166.450175,35 L166.45236,35 Z" id="Path" fill="#FDA57D"></path>
                <path d="M166,35.5692853 C167.611507,36.1392669 169.385357,36.1436734 171,35.581706 L171,35 L166,35 L166,35.5692853 Z" id="Path" fill="#000000" opacity="0.1"></path>
                <circle id="Oval" fill="#FDA57D" cx="168" cy="28" r="8"></circle>
                <path d="M162,21.643972 C162,21.643972 165.401478,27.2302845 175,23.9882281 L172.76601,21.1511794 L168.805419,20 L162,21.643972 Z" id="Path" fill="#000000" opacity="0.1"></path>
                <path d="M162,21.6386069 C162,21.6386069 165.401478,27.2338499 175,23.9866107 L172.76601,21.1530197 L168.805419,20 L162,21.6386069 Z" id="Path" fill="#72351C"></path>
                <path d="M162.170278,21.007162 C162.401901,20.4968613 162.802249,20.0335391 163.337709,19.656095 C164.943239,18.52814 167.569339,18.2890914 168.92346,17 C169.073699,17.1842039 169.106902,17.4051294 169.0148,17.6077639 C168.922697,17.8103984 168.713957,17.9756749 168.440557,18.062438 C169.732448,18.062438 171.230943,17.9756722 171.962766,17.2195705 C172.331915,17.8303718 172.172949,18.5378316 171.554538,19.0363395 C172.699567,19.0735248 173.92425,19.6259926 173.996437,20.4405284 C174.046221,20.9823717 173.568295,21.5029664 172.941019,21.8075319 C172.289912,22.0947304 171.566038,22.2884346 170.810269,22.377707 C168.629735,22.7194579 160.748948,24.1519784 162.170278,21.007162 Z" id="Path" fill="#72351C"></path>
                <path d="M176,30 L175.787611,30 L171.661886,32.7438066 C167.685078,31.3481236 164.767775,32.7438066 164.767775,32.7438066 L160.436985,30.1134107 L160,30.1536532 C160.108148,33.4354643 163.71922,36.041575 168.100102,35.9994976 C172.480985,35.9574201 176.001716,33.28281 175.997559,30 L176,30 Z M167.987794,33.8084035 C166.430272,33.8084035 165.170583,33.5724362 165.170583,33.2797635 C165.170583,32.9870908 166.432713,32.7511234 167.987794,32.7511234 C169.542875,32.7511234 170.805005,32.9870908 170.805005,33.2797635 C170.805005,33.5724362 169.542875,33.8084035 167.987794,33.8084035 Z" id="Shape" fill="#72351C" fill-rule="nonzero"></path>
                <ellipse id="Oval" fill="#FDA57D" cx="161" cy="29.5" rx="1" ry="1.5"></ellipse>
                <ellipse id="Oval" fill="#FDA57D" cx="176" cy="29.5" rx="1" ry="1.5"></ellipse>
                <g id="Group" opacity="0.5" transform="translate(112.000000, 40.000000)" fill="url(#linearGradient-2)">
                    <ellipse id="Oval" cx="18" cy="17.9976471" rx="17.8886842" ry="17.7717647"></ellipse>
                </g>
                <circle id="Oval" fill="#F5F5F5" cx="129.5" cy="56.5" r="17.5"></circle>
                <path d="M124.973038,57 C124.973038,57 123.056572,67.336485 122,66.7608454 C122,66.7608454 132.090034,76.2989433 141,66.7608454 C141,66.7608454 139.431151,59.4777531 137.164781,57 L124.973038,57 Z" id="Path" fill="#333333"></path>
                <path d="M131.706944,74.9999824 C135.010411,75.0042107 138.242398,74.2463158 141,72.8207786 C140.378024,70.1523292 138.00674,70 138.00674,70 L124.936093,70 C124.936093,70 122.699723,70.1433687 122,72.5985572 C124.841735,74.1651942 128.232558,75.0040585 131.706944,74.9999824 Z" id="Path" fill="#3EB7F9"></path>
                <circle id="Oval" fill="#333333" cx="131" cy="57" r="8"></circle>
                <path d="M128.002185,64 L133,64 L133,67.1836529 C133.000002,68.1854816 131.945993,68.9981448 130.644231,69 L130.36014,69 C129.056671,69 128,68.1867937 128,67.1836529 L128,64 L128.002185,64 Z" id="Path" fill="#000000" opacity="0.1"></path>
                <path d="M128.458315,64 L132.550415,64 C132.798714,64 133,64.1553729 133,64.347035 L133,67.1890157 C132.99399,68.1912128 131.939132,69.0009379 130.640768,68.9999992 L130.357049,68.9999992 C129.055287,68.9999992 128,68.1854231 128,67.1805925 L128,64.347035 C128,64.1553729 128.201286,64 128.449585,64 L128.458315,64 Z" id="Path" fill="#BE7C5E"></path>
                <path d="M128,65.5692853 C129.611507,66.1392669 131.385357,66.1436734 133,65.581706 L133,65 L128,65 L128,65.5692853 Z" id="Path" fill="#000000" opacity="0.1"></path>
                <circle id="Oval" fill="#BE7C5E" cx="131" cy="58" r="8"></circle>
                <path d="M123,55 L139,55 C139,55 137.63296,49.6759757 131.576,50.0155827 C125.51904,50.3551896 123,55 123,55 Z" id="Path" fill="#333333"></path>
                <ellipse id="Oval" fill="#BE7C5E" cx="123" cy="58.5" rx="1" ry="1.5"></ellipse>
                <ellipse id="Oval" fill="#BE7C5E" cx="138" cy="58.5" rx="1" ry="1.5"></ellipse>
                <path d="M123,55 L139,55 C139,55 137.63296,49.6759757 131.576,50.0155827 C125.51904,50.3551896 123,55 123,55 Z" id="Path" fill="#000000" opacity="0.1"></path>
                <path d="M130.5,41.1589003 C139.579628,41.1589003 146.940121,48.6989175 146.940121,58 C146.940121,67.3010825 139.579628,74.8410997 130.5,74.8410997 C121.420372,74.8410997 114.059879,67.3010825 114.059879,58 C114.059879,48.6989175 121.420372,41.1589003 130.5,41.1589003 Z M130.5,37 C119.178163,37 110,46.4020203 110,58 C110,69.5979797 119.178163,79 130.5,79 C141.821837,79 151,69.5979797 151,58 C150.98684,46.4076089 141.816382,37.0134811 130.5,37 Z" id="Shape" fill="#CCCCCC" fill-rule="nonzero"></path>
                <rect id="Rectangle" fill="#CCCCCC" x="128" y="32" width="5" height="5"></rect>
                <polygon id="Rectangle" fill="#CCCCCC" transform="translate(142.500000, 37.500000) rotate(-59.000000) translate(-142.500000, -37.500000) " points="140.016467 35.0179116 145 35 144.983533 39.9820884 140 40"></polygon>
                <polygon id="Rectangle" fill="#CCCCCC" transform="translate(149.500000, 44.500000) rotate(-29.000000) translate(-149.500000, -44.500000) " points="147.016609 42.0164075 152 42 151.983391 46.9835925 147 47"></polygon>
                <polygon id="Rectangle" fill="#CCCCCC" transform="translate(149.500000, 68.500000) rotate(-58.000000) translate(-149.500000, -68.500000) " points="147.017462 66.0175235 152 66 151.982538 70.9824765 147 71"></polygon>
                <polygon id="Rectangle" fill="#CCCCCC" transform="translate(110.500000, 44.500000) rotate(-61.000000) translate(-110.500000, -44.500000) " points="108.016407 42.0166086 113 42 112.983593 46.9833914 108 47"></polygon>
                <polygon id="Rectangle" fill="#CCCCCC" transform="translate(110.500000, 68.500000) rotate(-32.000000) translate(-110.500000, -68.500000) " points="108.017524 66.017462 113 66 112.982476 70.982538 108 71"></polygon>
                <polygon id="Rectangle" fill="#CCCCCC" transform="translate(119.500000, 37.500000) rotate(-31.000000) translate(-119.500000, -37.500000) " points="117.017912 35.0164674 122 35 121.982088 39.9835326 117 40"></polygon>
                <rect id="Rectangle" fill="#CCCCCC" x="128" y="77" width="5" height="5"></rect>
                <polygon id="Rectangle" fill="#CCCCCC" transform="translate(142.500000, 77.500000) rotate(-31.000000) translate(-142.500000, -77.500000) " points="140.017912 75.0164674 145 75 144.982088 79.9835326 140 80"></polygon>
                <polygon id="Rectangle" fill="#CCCCCC" transform="translate(120.500000, 77.500000) rotate(-58.840695) translate(-120.500000, -77.500000) " points="118.015889 75.0186724 123 75 122.984111 79.9813276 118 80"></polygon>
                <rect id="Rectangle" fill="#CCCCCC" x="106" y="56" width="5" height="5"></rect>
                <rect id="Rectangle" fill="#CCCCCC" transform="translate(152.500000, 58.500000) rotate(-180.000000) translate(-152.500000, -58.500000) " x="150" y="56" width="5" height="5"></rect>
                <path d="M168.5,9.15890028 C177.579628,9.15890028 184.940121,16.6989175 184.940121,26 C184.940121,35.3010825 177.579628,42.8410997 168.5,42.8410997 C159.420372,42.8410997 152.059879,35.3010825 152.059879,26 C152.059879,16.6989175 159.420372,9.15890028 168.5,9.15890028 Z M168.5,5 C157.178163,5 148,14.4020203 148,26 C148,37.5979797 157.178163,47 168.5,47 C179.821837,47 189,37.5979797 189,26 C188.98684,14.4076089 179.816382,5.01348111 168.5,5 Z" id="Shape" fill="#CCCCCC" fill-rule="nonzero"></path>
                <rect id="Rectangle" fill="#CCCCCC" x="165" y="3" width="5" height="5"></rect>
                <polygon id="Rectangle" fill="#CCCCCC" transform="translate(178.500000, 6.500000) rotate(-59.000000) translate(-178.500000, -6.500000) " points="176.016467 4.01791162 181 4 180.983533 8.98208838 176 9"></polygon>
                <polygon id="Rectangle" fill="#CCCCCC" transform="translate(188.500000, 16.500000) rotate(-29.000000) translate(-188.500000, -16.500000) " points="186.016609 14.0164075 191 14 190.983391 18.9835925 186 19"></polygon>
                <polygon id="Rectangle" fill="#CCCCCC" transform="translate(188.500000, 38.500000) rotate(-58.000000) translate(-188.500000, -38.500000) " points="186.017462 36.0175235 191 36 190.982538 40.9824765 186 41"></polygon>
                <polygon id="Rectangle" fill="#CCCCCC" transform="translate(148.500000, 16.500000) rotate(-61.000000) translate(-148.500000, -16.500000) " points="146.016407 14.0166086 151 14 150.983593 18.9833914 146 19"></polygon>
                <polygon id="Rectangle" fill="#CCCCCC" transform="translate(148.500000, 38.500000) rotate(-32.000000) translate(-148.500000, -38.500000) " points="146.017524 36.017462 151 36 150.982476 40.982538 146 41"></polygon>
                <polygon id="Rectangle" fill="#CCCCCC" transform="translate(157.500000, 6.500000) rotate(-31.000000) translate(-157.500000, -6.500000) " points="155.017912 4.01646735 160 4 159.982088 8.98353265 155 9"></polygon>
                <rect id="Rectangle" fill="#CCCCCC" x="165" y="48" width="5" height="5"></rect>
                <polygon id="Rectangle" fill="#CCCCCC" transform="translate(178.500000, 46.500000) rotate(-31.000000) translate(-178.500000, -46.500000) " points="176.017912 44.0164674 181 44 180.982088 48.9835326 176 49"></polygon>
                <polygon id="Rectangle" fill="#CCCCCC" transform="translate(158.500000, 46.500000) rotate(-58.840695) translate(-158.500000, -46.500000) " points="156.015889 44.0186724 161 44 160.984111 48.9813276 156 49"></polygon>
                <rect id="Rectangle" fill="#CCCCCC" x="144" y="26" width="5" height="5"></rect>
                <rect id="Rectangle" fill="#CCCCCC" transform="translate(191.500000, 28.500000) rotate(-180.000000) translate(-191.500000, -28.500000) " x="189" y="26" width="5" height="5"></rect>
                <path d="M91.5214939,8.15890028 C91.7143393,8.15890028 91.9079815,8.15890028 92.1024206,8.15890028 C101.077071,8.47211737 108.149577,16.0897049 107.996282,25.2777094 C107.842986,34.4657139 100.520488,41.8317948 91.5406191,41.8313141 C91.3477737,41.8313141 91.1541315,41.8313141 90.9596924,41.8313141 C81.9850415,41.518097 74.9125357,33.9005095 75.0658314,24.7125049 C75.2191271,15.5245004 82.5416253,8.15841955 91.5214939,8.15890028 Z M91.5214939,4 C80.3244001,3.99992254 71.1941733,13.1849275 71.0030488,24.6415485 C70.8119242,36.0981695 79.6304632,45.5967365 90.821035,45.9877679 C91.0600994,45.9877679 91.2991639,46 91.5382284,46 C102.711103,45.9668025 111.804885,36.7928726 111.99691,25.3610071 C112.188934,13.9291416 103.408628,4.44080453 92.2434687,4.01467847 C92.0044042,4.01467847 91.7653397,4.00244641 91.5262752,4.00244641 L91.5214939,4 Z" id="Shape" fill="#CCCCCC" fill-rule="nonzero"></path>
                <polygon id="Rectangle" fill="#CCCCCC" transform="translate(93.500000, 3.500000) rotate(-88.010000) translate(-93.500000, -3.500000) " points="91.0012584 1.0014531 96 1 95.9987416 5.9985469 91 6"></polygon>
                <polygon id="Rectangle" fill="#CCCCCC" transform="translate(104.500000, 5.500000) rotate(-57.010000) translate(-104.500000, -5.500000) " points="102.017089 3.01847134 107 3 106.982911 7.98152866 102 8"></polygon>
                <polygon id="Rectangle" fill="#CCCCCC" transform="translate(111.500000, 16.500000) rotate(-27.010000) translate(-111.500000, -16.500000) " points="109.015893 14.0156154 114 14 113.984107 18.9843846 109 19"></polygon>
                <polygon id="Rectangle" fill="#CCCCCC" transform="translate(111.500000, 38.500000) rotate(-56.010000) translate(-111.500000, -38.500000) " points="109.018063 36.0180186 114 36 113.981937 40.9819814 109 41"></polygon>
                <polygon id="Rectangle" fill="#CCCCCC" transform="translate(73.500000, 14.500000) rotate(-59.010000) translate(-73.500000, -14.500000) " points="71.0171264 12.0172378 76 12 75.9828736 16.9827622 71 17"></polygon>
                <polygon id="Rectangle" fill="#CCCCCC" transform="translate(73.500000, 37.500000) rotate(-29.886527) translate(-73.500000, -37.500000) " points="71.0163929 35.017315 76 35 75.9836071 39.982685 71 40"></polygon>
                <polygon id="Rectangle" fill="#CCCCCC" transform="translate(82.500000, 5.500000) rotate(-29.010000) translate(-82.500000, -5.500000) " points="80.0172603 3.01577204 85 3 84.9827397 7.98422796 80 8"></polygon>
                <polygon id="Rectangle" fill="#CCCCCC" transform="translate(91.500000, 48.500000) rotate(-88.010000) translate(-91.500000, -48.500000) " points="89.0012584 46.0014531 94 46 93.9987416 50.9985469 89 51"></polygon>
                <polygon id="Rectangle" fill="#CCCCCC" transform="translate(102.500000, 45.500000) rotate(-29.010000) translate(-102.500000, -45.500000) " points="100.01726 43.015772 105 43 104.98274 47.984228 100 48"></polygon>
                <polygon id="Rectangle" fill="#CCCCCC" transform="translate(81.500000, 45.500000) rotate(-57.010000) translate(-81.500000, -45.500000) " points="79.0170887 43.0184713 84 43 83.9829113 47.9815287 79 48"></polygon>
                <polygon id="Rectangle" fill="#CCCCCC" transform="translate(69.500000, 25.500000) rotate(1.990000) translate(-69.500000, -25.500000) " points="67 23 71.9991697 23.0021094 72 28 67.0008303 27.9978906"></polygon>
                <polygon id="Rectangle" fill="#CCCCCC" transform="translate(114.500000, 27.500000) rotate(-178.010000) translate(-114.500000, -27.500000) " points="112 25 116.99917 25.0021094 117 30 112.00083 29.9978906"></polygon>
                <g id="Group" opacity="0.5" transform="translate(0.000000, 75.000000)" fill="url(#linearGradient-3)">
                    <ellipse id="Oval" cx="16.4310448" cy="15.9644444" rx="16.4310448" ry="15.8151111"></ellipse>
                </g>
                <ellipse id="Oval" fill="#E6E6E6" cx="15.5" cy="91" rx="15.5" ry="16"></ellipse>
                <path d="M15.6864187,104.999977 C18.6416775,105.004394 21.5330417,104.246434 24,102.820604 C23.4419016,100.152191 21.3206648,100 21.3206648,100 L9.62607274,100 C9.62607274,100 7.62525541,100.144074 7,102.59942 C9.54308437,104.166447 12.5775124,105.005034 15.6864187,104.999977 Z" id="Path" fill="#CCCCCC"></path>
                <circle id="Oval" fill="#CCCCCC" cx="15" cy="90" r="8"></circle>
                <path d="M14,96 L19,96 L19,99.1835389 C19,100.186734 17.9427714,100.999984 16.6386139,100.999984 L16.3712871,100.999984 C15.7432949,101.002009 15.1401204,100.811529 14.6951308,100.47066 C14.2501413,100.12979 13.9999945,99.6666126 14,99.1835389 L14,96 Z" id="Path" fill="#000000" opacity="0.1"></path>
                <path d="M14.1604938,96 L18.8518519,96 C18.9336718,96 19,96.0511478 19,96.1142418 L19,99.1835389 C19,100.186734 17.9453819,100.999984 16.6444444,100.999984 L16.3654321,100.999984 C15.7389904,101.002009 15.1373052,100.811529 14.6934145,100.47066 C14.2495237,100.12979 13.9999945,99.6666126 14,99.1835389 L14,96.1142418 C14,96.0511478 14.0663282,96 14.1481481,96 L14.1604938,96 Z" id="Path" fill="#CCCCCC"></path>
                <path d="M14,97.5689396 C15.6113079,98.1388136 17.3851415,98.1437973 19,97.5829875 L19,97 L14,97 L14,97.5689396 Z" id="Path" fill="#000000" opacity="0.1"></path>
                <ellipse id="Oval" fill="#CCCCCC" cx="15" cy="90.5" rx="7" ry="7.5"></ellipse>
                <path d="M9,83.6445566 C9,83.6445566 12.1402831,89.2324398 21,85.9861887 L18.9407979,83.1505129 L15.2831403,82 L9,83.6445566 Z" id="Path" fill="#000000" opacity="0.1"></path>
                <path d="M9,83.6445566 C9,83.6445566 12.1402831,89.2324398 21,85.9861887 L18.9407979,83.1505129 L15.2831403,82 L9,83.6445566 Z" id="Path" fill="#CCCCCC"></path>
                <path d="M10.1396774,84.3392647 C10.3332773,83.9137053 10.6675268,83.5274085 11.1143639,83.2128061 C12.45309,82.2718621 14.6373272,82.072977 15.7693727,81 C15.8933269,81.1536238 15.9201329,81.3374006 15.8431591,81.5058653 C15.7661852,81.67433 15.5926215,81.8117467 15.3654062,81.8841196 C16.4410843,81.8841196 17.6929106,81.8122536 18.3012089,81.1805008 C18.6083263,81.6896651 18.4757415,82.2791768 17.9606558,82.6947019 C18.9165532,82.7247854 19.9358638,83.1860652 19.9969285,83.8646145 C20.0392041,84.3175378 19.6399349,84.7453915 19.1161877,85.0044436 C18.573715,85.2441971 17.9705015,85.4060172 17.3406143,85.4807651 C15.5298112,85.7665581 8.96535636,86.9598689 10.1396774,84.3392647 Z" id="Path" fill="#CCCCCC"></path>
                <ellipse id="Oval" fill="#CCCCCC" cx="7.5" cy="91.5" rx="1" ry="1.5"></ellipse>
                <ellipse id="Oval" fill="#CCCCCC" cx="21.5" cy="91.5" rx="1" ry="1.5"></ellipse>
                <g id="Group" opacity="0.5" transform="translate(2.000000, 72.000000)" fill="url(#linearGradient-3)">
                    <ellipse id="Oval" cx="16.4535556" cy="16" rx="16.3093333" ry="15.9331343"></ellipse>
                </g>
                <ellipse id="Oval" fill="#F5F5F5" cx="18.5" cy="87" rx="15.5" ry="16"></ellipse>
                <path d="M17.6864187,102.999977 C20.6416775,103.004394 23.5330417,102.246434 26,100.820604 C25.4419016,98.1521909 23.3206648,98 23.3206648,98 L11.6260727,98 C11.6260727,98 9.62525541,98.144074 9,100.59942 C11.5430844,102.166447 14.5775124,103.005034 17.6864187,102.999977 Z" id="Path" fill="#CCCCCC"></path>
                <circle id="Oval" fill="#CCCCCC" cx="18" cy="88" r="8"></circle>
                <path d="M16,95 L21,95 L21,98.1835491 C21,99.1867472 19.9427714,100 18.6386139,100 L18.3613861,100 C17.0572286,100 16,99.1867472 16,98.1835491 L16,95 Z" id="Path" fill="#000000" opacity="0.1"></path>
                <path d="M16.1509351,94.0000161 L20.8515391,94.0000161 C20.9335203,94.0000161 20.9999792,94.0510862 20.9999792,94.1140842 L20.9999792,97.1787131 C21.002611,97.6610478 20.7551103,98.124321 20.3122018,98.4660989 C19.8692932,98.8078769 19.267463,99.0000042 18.6397812,99 L18.360219,99 C17.0567176,99 16.000021,98.1879867 16.000021,97.1863176 L16.000021,94.1159853 C15.9993447,94.085072 16.0150273,94.0552719 16.0434771,94.0334098 C16.0719269,94.0115477 16.1107067,93.9994965 16.1509351,94.0000161 Z" id="Path" fill="#CCCCCC"></path>
                <path d="M16,96.567928 C17.6113079,97.1391393 19.3851415,97.1441348 21,96.5820089 L21,96 L16,96 L16,96.567928 Z" id="Path" fill="#000000" opacity="0.1"></path>
                <ellipse id="Oval" fill="#CCCCCC" cx="18" cy="89.5" rx="7" ry="7.5"></ellipse>
                <path d="M13,82.6445566 C13,82.6445566 16.1402831,88.2324398 25,84.9861887 L22.9407979,82.1505129 L19.2831403,81 L13,82.6445566 Z" id="Path" fill="#000000" opacity="0.1"></path>
                <path d="M13,82.6445566 C13,82.6445566 16.1402831,88.2324398 25,84.9861887 L22.9407979,82.1505129 L19.2831403,81 L13,82.6445566 Z" id="Path" fill="#CCCCCC"></path>
                <path d="M14.1421506,82.3392647 C14.3357019,81.9137053 14.6698675,81.5274085 15.1165926,81.2128061 C16.4549829,80.2718621 18.6386722,80.072977 19.7704338,79 C19.8943569,79.1536238 19.9211562,79.3374006 19.8442017,79.5058653 C19.7672471,79.67433 19.593727,79.8117467 19.3665687,79.8841196 C20.441977,79.8841196 21.6934893,79.8122536 22.301635,79.1805008 C22.6086754,79.6896651 22.4761238,80.2791768 21.9611673,80.6947019 C22.9168249,80.7247854 23.9358799,81.1860652 23.9969293,81.8646145 C24.0391943,82.3175378 23.6400252,82.7453915 23.1164094,83.0044436 C22.5740727,83.2441971 21.9710105,83.4060172 21.3412813,83.4807651 C19.5262363,83.7665581 12.9563838,84.9598689 14.1421506,82.3392647 Z" id="Path" fill="#CCCCCC"></path>
                <ellipse id="Oval" fill="#CCCCCC" cx="10.5" cy="88.5" rx="1" ry="1.5"></ellipse>
                <ellipse id="Oval" fill="#CCCCCC" cx="25.5" cy="88.5" rx="1" ry="1.5"></ellipse>
                <path d="M77.2266022,34.5751425 L77.2266022,35.31883 L74.9943597,35.1329082 L74.9943597,39.7809549 L69.1533253,47.8011597 L68.7936862,47.6036177 L68,48.533227 L75.5474598,53 L75.5474598,51.3243791 L75.1233337,51.0919768 C75.6516311,49.2443782 77.814426,41.877224 79.0496002,40.9034582 C79.0496002,40.9034582 81.2818426,39.4137592 82.4872536,37.3662946 C83.6926645,35.31883 83.0874788,28.2468268 77.2266022,34.5751425 Z" id="Path" fill="url(#linearGradient-4)"></path>
                <path d="M65.3468736,51.6843293 C65.3468736,51.6843293 57.6234254,50.0358825 53.3852364,48.2989125 C51.4074852,47.4830844 49.3025501,47.0270677 47.1676475,46.9519233 L42.5340522,46.798802 L40.2255414,45.3991774 L40.9358524,43.5162636 C41.0068835,43.4851608 41.0779146,43.4516655 41.1489457,43.4109927 L41.2152414,43.0066567 C41.585377,42.9142777 41.9504982,42.8024752 42.3091203,42.6717038 C42.2021628,43.5968778 42.5422884,44.5175414 43.2230538,45.1455702 C43.7607423,45.7498394 44.5285053,46.0929026 45.3326775,46.0882234 C46.129098,46.091023 46.8901179,45.755925 47.4303174,45.1645749 C47.9705168,44.5732248 48.240295,43.77992 48.1739214,42.9779464 L47.842443,38.7527549 L47.674336,38.8412781 L47.6530267,38.5589607 L47.5914664,38.592456 C50.2158204,34.8334209 50.2900761,29.8327404 47.778515,25.9958344 L47.9584604,25.828358 L47.9584604,21.1749052 C47.8969002,21.1150922 47.8329722,21.0600642 47.7690442,21.0050362 L47.7690442,20.9835036 C43.947571,17.3947225 38.6960051,17.6770399 34.898209,18.5909828 C32.0130892,19.2812605 29.8747152,21.7385328 29.5661411,24.7182284 C24.4968883,26.1154605 26.1897962,28.8022612 26.1092943,29.8406152 C25.7162555,34.9007965 27.3286615,37.8770923 29.0807619,39.5997072 C29.809037,40.357535 30.660278,40.9838441 31.5976305,41.4515182 L30.4871777,43.6933101 L30.1628023,43.6813475 L29.2749136,46.3561857 L29.2322949,46.3561857 L18.234313,53.8830558 L10.6363531,62.3525791 C9.9612372,63.105582 9.80816264,64.1981977 10.249905,65.1109688 C10.6916473,66.02374 11.6390912,66.5725279 12.6417978,66.496425 L20.4149678,65.9030799 C20.4149678,65.9030799 25.9127749,76.774694 24.2032931,87.6463081 C23.6303089,91.2996872 23.8694469,93.5343016 24.4400634,94.8956458 C24.2815664,96.3678291 23.8814731,97.8030479 23.2562118,99.1423701 C21.1702651,103.549393 21.1702651,108.147818 23.8244606,113.511849 L24.5821256,141.2938 C24.5821256,141.2938 25.5292069,154.323468 24.5821256,157.005483 C23.6350443,159.687499 24.9609582,172.525765 24.9609582,172.525765 L24.7762773,172.525765 L24.7762773,179.617197 L38.9824972,180 C38.9824972,180 42.2972818,178.411366 42.8915754,177.210321 L50.0325685,179.428188 C50.0325685,179.428188 57.8886081,178.059666 53.292896,176.169574 C49.8620939,174.757987 49.0097207,172.745877 48.7942597,171.812794 L60.0242765,139.185989 C60.0242765,139.185989 57.9383299,111.404039 50.3545762,101.821993 L49.5850726,96.1732519 L49.6916193,96.1732519 L51.3040252,63.1851764 L51.4366166,63.2043165 L51.3987334,63.2162791 C56.756846,64.0345212 61.0613306,63.601475 63.9144131,63.0200924 C65.1526649,62.7969091 66.3666396,62.453177 67.5393669,61.993701 L67.7524602,61.9075703 L67.7785049,61.9075703 L67.7974465,61.9075703 C68.6772593,61.5438008 69.5065806,61.0660847 70.2645934,60.486413 L75,53.1676921 L67.7950788,48.1433987 L65.3468736,51.6843293 Z M35.5777398,163.893551 L39.1813843,138.410813 L39.1813843,125.390715 L45.6286404,138.994588 L38.6912697,168.475228 L38.3266434,168.372349 L36.7260759,174.178997 C36.2032114,173.742224 35.8065192,173.171115 35.5777398,172.525765 L35.5777398,163.893551 Z" id="Shape" fill="url(#linearGradient-5)" fill-rule="nonzero"></path>
                <path d="M20.4344182,57 C20.4344182,57 9.2604485,59.5259406 11.2336346,75 C11.2336346,75 15.2764406,73.6265347 16.6883319,73.469703 C18.0285159,73.32 22.0787399,73.7382178 22.0787399,73.7382178 L24,66.7425743 L20.4344182,57 Z" id="Path" fill="#535461"></path>
                <path d="M73.5255415,37.0523365 L73.5255415,41.5837576 L68,49.4900446 L73.5255415,53 C73.5255415,53 75.9813377,43.7570385 77.3038761,42.6692131 C77.3038761,42.6692131 79.3835375,41.2187791 80.5167953,39.2256174 C81.650053,37.2324558 81.0846375,30.3452645 75.6027762,36.5072388 L75.6027762,37.2324558 L73.5255415,37.0523365 Z" id="Path" fill="#FDA57D"></path>
                <path d="M31.0870038,48.6591335 L33.2497349,45.6090915 C33.3793672,45.426605 33.6383021,45.3074718 33.9273906,45.2973094 L42.1553806,45.0007775 C42.4271391,44.990736 42.6876025,45.0784776 42.8472871,45.233858 C43.0069717,45.3892384 43.0441235,45.5910901 42.9459789,45.7700659 L40.8240995,49.6385359 C40.6949091,49.8736079 40.3607891,50.0200809 40.0046647,49.9977631 L31.7334201,49.4792559 C31.4676456,49.4630391 31.2306663,49.3547679 31.1010716,49.1903482 C30.9714768,49.0259285 30.9662048,48.8268503 31.0870038,48.6591335 Z" id="Path" fill="#FDA57D"></path>
                <polygon id="Path" fill="#EDEEF9" points="31.4593101 46 30 50 45 49.4982415 39.2381112 46.2696366"></polygon>
                <polygon id="Path" fill="#EDEEF9" points="67 50.8615246 67.5266781 50 72 53.4483536 72 55"></polygon>
                <path d="M26.4046097,93 C26.4046097,93 27.4521559,97.1510446 25.4457575,101.345006 C23.4393591,105.538968 23.4297705,109.914136 25.9947004,115.018895 L26.7282224,141.455876 C26.7282224,141.455876 27.6439263,153.854171 26.7282224,156.405359 C25.8125185,158.956546 27.0949834,171.173636 27.0949834,171.173636 L37.359497,171.173636 L37.359497,162.971687 L40.8425279,138.723482 L40.8425279,126.325187 L47.0750678,139.269484 L39.9196326,169.170834 L49.2684424,173 L61,139.453074 C61,139.453074 58.9840131,113.016094 51.6511903,103.900963 L50.2824286,93.953715 L26.4046097,93 Z" id="Path" fill="#3EB7F9"></path>
                <path d="M27,175.745137 L27,171 L37.0841567,171 C37.0841567,171 37.7920603,172.923206 42.3911205,173.307176 C46.9901807,173.691147 40.2674096,176 40.2674096,176 L27,175.745137 Z" id="Path" fill="#333333"></path>
                <path d="M38,171.799546 L39.7479215,165 L49.4202144,167.915873 C49.4202144,167.915873 49.3902764,170.876644 53.6599029,172.75737 C57.9295293,174.638095 50.631554,176 50.631554,176 L38,171.799546 Z" id="Path" fill="#333333"></path>
                <path d="M49.3567166,93.7633914 L25,93 C25.300942,94.1328328 25.3629051,95.2963959 25.1834458,96.4448037 C26.2987966,98.4906926 28.6884845,97.9295999 28.6884845,97.9295999 L50,97.4181277 L49.3567166,93.7633914 Z" id="Path" fill="#000000" opacity="0.1"></path>
                <path d="M29.2635141,49 L19,56.1336493 L21.0341892,67.5474881 C21.0341892,67.5474881 26.1671033,77.8651229 24.5726137,88.1827576 C22.9781242,98.5003924 28.1110383,96.9119665 28.1110383,96.9119665 L48.3673042,96.2770717 L49.8715396,64.9722407 C49.8715396,64.9722407 62.0882456,66.7532752 67.5752336,62.3922376 L72,55.448819 L65.2749105,50.6930528 L62.9745874,54.064891 C62.9745874,54.064891 55.7727709,52.4859766 51.8108462,50.8452373 C49.9652963,50.0715799 48.0011607,49.6392857 46.0091258,49.5683141 L29.2635141,49 Z" id="Path" fill="#535461"></path>
                <path d="M32.0702346,99 C32.0702346,99 31.024882,105.772778 37,117" id="Path" fill="#000000" opacity="0.1"></path>
                <path d="M50,65.4857038 C50,65.4857038 59.4091476,62 63.5266111,62 C67.6440746,62 66.9569761,63.9779873 66.9569761,63.9779873 C66.9569761,63.9779873 60.3910832,67.2299807 50,65.4857038 Z" id="Path" fill="#000000" opacity="0.1"></path>
                <path d="M42.6503633,43.0012083 L39.2622321,43.411443 C39.1554827,43.4258372 39.0580159,43.5649812 39,43.7808942 C39.7449247,45.1699345 40.6778211,46 41.6896192,46 C42.051233,45.9953094 42.4054724,45.8936314 42.7176618,45.7049189 L42.9775732,44.0831724 C43.0634368,43.5481879 42.8917096,42.9700209 42.6503633,43.0012083 Z" id="Path" fill="#000000" opacity="0.1"></path>
                <circle id="Oval" fill="#FDA57D" cx="40" cy="35" r="10"></circle>
                <path d="M47.7943549,23.8909888 L47.7943549,28.3965755 L47.2892749,28.8961185 C46.8528578,29.3274379 46.6505725,29.9696527 46.7529006,30.5989986 C46.8552287,31.2283444 47.247997,31.7576532 47.7943549,32.0024998 C47.7943549,32.0024998 46.9592892,39.2119235 45.9177019,41.9157605 L47.6910941,40.9021247 L47.9918973,44.9906173 C48.048872,45.7659749 47.8035046,46.5318061 47.3150304,47.1032278 C46.8265563,47.6746495 46.1393655,47.9997336 45.4193563,48 C44.5199325,47.9998571 43.6854146,47.4940227 43.216614,46.6648302 C42.7478133,45.8356378 42.7123191,44.8026361 43.1229257,43.9381821 C43.5471929,43.0457946 44.299201,42.1073328 44.6673482,40.7857264 C46.0142283,35.9357945 43.3204681,36.8427318 42.6851896,37.7448191 C42.0499112,38.6469064 42.7884505,41.0112482 42.7884505,41.0112482 C42.7884505,41.0112482 44.770609,44.9542428 34.3412673,44.0521555 C34.3412673,44.0521555 27.4587099,42.4759276 28.1882699,32.4486935 C28.2623483,31.4447576 26.7291498,28.8427692 31.3175214,27.4920632 C31.5964919,24.608593 33.5321886,22.230627 36.1438419,21.5630215 C39.5873654,20.6924587 44.3418522,20.4135877 47.7943549,23.8909888 Z" id="Path" fill="#000000" opacity="0.1"></path>
                <path d="M47.7988445,23.8925028 L47.7988445,28.3978066 L47.2892749,28.8973182 C46.8528578,29.3286105 46.6505725,29.970785 46.7529006,30.6000913 C46.8552287,31.2293976 47.247997,31.7586732 47.7943549,32.0035044 C47.7943549,32.0035044 46.9592892,39.2124754 45.9177019,41.9161426 L47.6910941,40.9025705 L47.9918973,44.9908063 C48.048872,45.7661152 47.8035046,46.5318983 47.3150304,47.1032841 C46.8265563,47.6746699 46.1393655,47.9997336 45.4193563,48 C44.5199325,47.9998571 43.6854146,47.4940545 43.216614,46.6649141 C42.7478133,45.8357737 42.7123191,44.8028369 43.1229257,43.9384372 C43.5471929,43.0461057 44.299201,42.1077029 44.6673482,40.7861794 C46.0142283,35.9365522 43.3204681,36.8434325 42.6851896,37.7454631 C42.0499112,38.6474938 42.7884505,41.0116871 42.7884505,41.0116871 C42.7884505,41.0116871 44.770609,44.9544341 34.3412673,44.0524034 C34.3412673,44.0524034 27.4587099,42.4762745 28.1882699,32.4496701 C28.2623483,31.4457973 26.7291498,28.8439723 31.3175214,27.4933511 C31.5964919,24.610062 33.5321886,22.2322453 36.1438419,21.5646817 C39.5851206,20.6917488 44.3396074,20.4128952 47.7988445,23.8925028 Z" id="Path" fill="#72351C"></path>
            </g>
        </g>
    </g>
</svg>