<?xml version="1.0" encoding="UTF-8"?>
<svg width="240px" height="180px" viewBox="0 0 240 180" version="1.1" xmlns="http://www.w3.org/2000/svg" xmlns:xlink="http://www.w3.org/1999/xlink">
    <!-- Generator: Sketch 52.5 (67469) - http://www.bohemiancoding.com/sketch -->
    <title>Onboarding graphic Welcome</title>
    <desc>Created with Sketch.</desc>
    <defs>
        <linearGradient x1="50.0160933%" y1="99.9819644%" x2="50.0160933%" y2="0.000900501915%" id="linearGradient-1">
            <stop stop-color="#808080" stop-opacity="0.25" offset="0%"></stop>
            <stop stop-color="#808080" stop-opacity="0.12" offset="54%"></stop>
            <stop stop-color="#808080" stop-opacity="0.1" offset="100%"></stop>
        </linearGradient>
        <linearGradient x1="50.0283536%" y1="99.9757635%" x2="50.0283536%" y2="-0.106057071%" id="linearGradient-2">
            <stop stop-color="#808080" stop-opacity="0.25" offset="0%"></stop>
            <stop stop-color="#808080" stop-opacity="0.12" offset="54%"></stop>
            <stop stop-color="#808080" stop-opacity="0.1" offset="100%"></stop>
        </linearGradient>
        <linearGradient x1="49.9265533%" y1="99.961291%" x2="49.9265533%" y2="-0.0777286366%" id="linearGradient-3">
            <stop stop-color="#808080" stop-opacity="0.25" offset="0%"></stop>
            <stop stop-color="#808080" stop-opacity="0.12" offset="54%"></stop>
            <stop stop-color="#808080" stop-opacity="0.1" offset="100%"></stop>
        </linearGradient>
        <linearGradient x1="50%" y1="99.9899134%" x2="50%" y2="0%" id="linearGradient-4">
            <stop stop-color="#808080" stop-opacity="0.25" offset="0%"></stop>
            <stop stop-color="#808080" stop-opacity="0.12" offset="54%"></stop>
            <stop stop-color="#808080" stop-opacity="0.1" offset="100%"></stop>
        </linearGradient>
        <linearGradient x1="49.9703264%" y1="100.03535%" x2="49.9703264%" y2="-1.33954094e-12%" id="linearGradient-5">
            <stop stop-color="#808080" stop-opacity="0.25" offset="0%"></stop>
            <stop stop-color="#808080" stop-opacity="0.12" offset="54%"></stop>
            <stop stop-color="#808080" stop-opacity="0.1" offset="100%"></stop>
        </linearGradient>
        <linearGradient x1="50.0206103%" y1="99.9786968%" x2="50.0206103%" y2="-0.045911383%" id="linearGradient-6">
            <stop stop-color="#808080" stop-opacity="0.25" offset="0%"></stop>
            <stop stop-color="#808080" stop-opacity="0.12" offset="54%"></stop>
            <stop stop-color="#808080" stop-opacity="0.1" offset="100%"></stop>
        </linearGradient>
        <linearGradient x1="50.0244375%" y1="56.9811071%" x2="50.0244375%" y2="-0.0188928524%" id="linearGradient-7">
            <stop stop-color="#808080" stop-opacity="0.25" offset="0%"></stop>
            <stop stop-color="#808080" stop-opacity="0.12" offset="54%"></stop>
            <stop stop-color="#808080" stop-opacity="0.1" offset="100%"></stop>
        </linearGradient>
        <linearGradient x1="50.000587%" y1="99.9273095%" x2="50.000587%" y2="0.101498152%" id="linearGradient-8">
            <stop stop-color="#808080" stop-opacity="0.25" offset="0%"></stop>
            <stop stop-color="#808080" stop-opacity="0.12" offset="54%"></stop>
            <stop stop-color="#808080" stop-opacity="0.1" offset="100%"></stop>
        </linearGradient>
        <linearGradient x1="49.9882812%" y1="99.7820184%" x2="49.9882812%" y2="0%" id="linearGradient-9">
            <stop stop-color="#808080" stop-opacity="0.25" offset="0%"></stop>
            <stop stop-color="#808080" stop-opacity="0.12" offset="54%"></stop>
            <stop stop-color="#808080" stop-opacity="0.1" offset="100%"></stop>
        </linearGradient>
        <linearGradient x1="50.0320718%" y1="100%" x2="50.0320718%" y2="0.0198333994%" id="linearGradient-10">
            <stop stop-color="#808080" stop-opacity="0.25" offset="0%"></stop>
            <stop stop-color="#808080" stop-opacity="0.12" offset="54%"></stop>
            <stop stop-color="#808080" stop-opacity="0.1" offset="100%"></stop>
        </linearGradient>
        <linearGradient x1="50%" y1="100%" x2="50%" y2="1.35924005e-13%" id="linearGradient-11">
            <stop stop-color="#808080" stop-opacity="0.25" offset="0%"></stop>
            <stop stop-color="#808080" stop-opacity="0.12" offset="54%"></stop>
            <stop stop-color="#808080" stop-opacity="0.1" offset="100%"></stop>
        </linearGradient>
        <linearGradient x1="50.0035849%" y1="100%" x2="50.0035849%" y2="-0.00732930327%" id="linearGradient-12">
            <stop stop-color="#808080" stop-opacity="0.25" offset="0%"></stop>
            <stop stop-color="#808080" stop-opacity="0.12" offset="54%"></stop>
            <stop stop-color="#808080" stop-opacity="0.1" offset="100%"></stop>
        </linearGradient>
        <linearGradient x1="49.9940241%" y1="99.8988038%" x2="49.9940241%" y2="-0.123569167%" id="linearGradient-13">
            <stop stop-color="#808080" stop-opacity="0.25" offset="0%"></stop>
            <stop stop-color="#808080" stop-opacity="0.12" offset="54%"></stop>
            <stop stop-color="#808080" stop-opacity="0.1" offset="100%"></stop>
        </linearGradient>
        <linearGradient x1="49.9748567%" y1="99.9866956%" x2="49.9748567%" y2="-0.0291804161%" id="linearGradient-14">
            <stop stop-color="#808080" stop-opacity="0.25" offset="0%"></stop>
            <stop stop-color="#808080" stop-opacity="0.12" offset="54%"></stop>
            <stop stop-color="#808080" stop-opacity="0.1" offset="100%"></stop>
        </linearGradient>
        <linearGradient x1="50.0402248%" y1="99.9972061%" x2="50.0402248%" y2="-0.180464178%" id="linearGradient-15">
            <stop stop-color="#808080" stop-opacity="0.25" offset="0%"></stop>
            <stop stop-color="#808080" stop-opacity="0.12" offset="54%"></stop>
            <stop stop-color="#808080" stop-opacity="0.1" offset="100%"></stop>
        </linearGradient>
        <linearGradient x1="50.0402248%" y1="99.7968609%" x2="50.0402248%" y2="-0.189908394%" id="linearGradient-16">
            <stop stop-color="#808080" stop-opacity="0.25" offset="0%"></stop>
            <stop stop-color="#808080" stop-opacity="0.12" offset="54%"></stop>
            <stop stop-color="#808080" stop-opacity="0.1" offset="100%"></stop>
        </linearGradient>
        <linearGradient x1="49.8280662%" y1="100%" x2="49.8280662%" y2="0%" id="linearGradient-17">
            <stop stop-color="#808080" stop-opacity="0.25" offset="0%"></stop>
            <stop stop-color="#808080" stop-opacity="0.12" offset="54%"></stop>
            <stop stop-color="#808080" stop-opacity="0.1" offset="100%"></stop>
        </linearGradient>
        <linearGradient x1="49.9385796%" y1="99.8888889%" x2="49.9385796%" y2="-0.222222222%" id="linearGradient-18">
            <stop stop-color="#808080" stop-opacity="0.25" offset="0%"></stop>
            <stop stop-color="#808080" stop-opacity="0.12" offset="54%"></stop>
            <stop stop-color="#808080" stop-opacity="0.1" offset="100%"></stop>
        </linearGradient>
        <linearGradient x1="50.0072135%" y1="100.021184%" x2="50.0072135%" y2="0.0947575955%" id="linearGradient-19">
            <stop stop-color="#808080" stop-opacity="0.25" offset="0%"></stop>
            <stop stop-color="#808080" stop-opacity="0.12" offset="54%"></stop>
            <stop stop-color="#808080" stop-opacity="0.1" offset="100%"></stop>
        </linearGradient>
        <linearGradient x1="49.9860339%" y1="100.005102%" x2="49.9860339%" y2="0%" id="linearGradient-20">
            <stop stop-color="#808080" stop-opacity="0.25" offset="0%"></stop>
            <stop stop-color="#808080" stop-opacity="0.12" offset="54%"></stop>
            <stop stop-color="#808080" stop-opacity="0.1" offset="100%"></stop>
        </linearGradient>
        <linearGradient x1="49.783088%" y1="100.11796%" x2="49.783088%" y2="0%" id="linearGradient-21">
            <stop stop-color="#808080" stop-opacity="0.25" offset="0%"></stop>
            <stop stop-color="#808080" stop-opacity="0.12" offset="54%"></stop>
            <stop stop-color="#808080" stop-opacity="0.1" offset="100%"></stop>
        </linearGradient>
        <linearGradient x1="49.7905312%" y1="100.035378%" x2="49.7905312%" y2="0%" id="linearGradient-22">
            <stop stop-color="#808080" stop-opacity="0.25" offset="0%"></stop>
            <stop stop-color="#808080" stop-opacity="0.12" offset="54%"></stop>
            <stop stop-color="#808080" stop-opacity="0.1" offset="100%"></stop>
        </linearGradient>
        <linearGradient x1="51.108148%" y1="100.086812%" x2="51.108148%" y2="0%" id="linearGradient-23">
            <stop stop-color="#808080" stop-opacity="0.25" offset="0%"></stop>
            <stop stop-color="#808080" stop-opacity="0.12" offset="54%"></stop>
            <stop stop-color="#808080" stop-opacity="0.1" offset="100%"></stop>
        </linearGradient>
        <linearGradient x1="49.9813641%" y1="100.109496%" x2="49.9813641%" y2="0.57369339%" id="linearGradient-24">
            <stop stop-color="#808080" stop-opacity="0.25" offset="0%"></stop>
            <stop stop-color="#808080" stop-opacity="0.12" offset="54%"></stop>
            <stop stop-color="#808080" stop-opacity="0.1" offset="100%"></stop>
        </linearGradient>
        <linearGradient x1="50%" y1="100.006316%" x2="50%" y2="0%" id="linearGradient-25">
            <stop stop-color="#808080" stop-opacity="0.25" offset="0%"></stop>
            <stop stop-color="#808080" stop-opacity="0.12" offset="54%"></stop>
            <stop stop-color="#808080" stop-opacity="0.1" offset="100%"></stop>
        </linearGradient>
        <linearGradient x1="49.993395%" y1="34%" x2="49.993395%" y2="0%" id="linearGradient-26">
            <stop stop-color="#808080" stop-opacity="0.25" offset="0%"></stop>
            <stop stop-color="#808080" stop-opacity="0.12" offset="54%"></stop>
            <stop stop-color="#808080" stop-opacity="0.1" offset="100%"></stop>
        </linearGradient>
        <linearGradient x1="49.997016%" y1="100.024637%" x2="49.997016%" y2="0%" id="linearGradient-27">
            <stop stop-color="#808080" stop-opacity="0.25" offset="0%"></stop>
            <stop stop-color="#808080" stop-opacity="0.12" offset="54%"></stop>
            <stop stop-color="#808080" stop-opacity="0.1" offset="100%"></stop>
        </linearGradient>
        <linearGradient x1="49.9955761%" y1="99.9741892%" x2="49.9955761%" y2="-0.0141859494%" id="linearGradient-28">
            <stop stop-color="#808080" stop-opacity="0.25" offset="0%"></stop>
            <stop stop-color="#808080" stop-opacity="0.12" offset="54%"></stop>
            <stop stop-color="#808080" stop-opacity="0.1" offset="100%"></stop>
        </linearGradient>
        <linearGradient x1="49.7125121%" y1="100%" x2="49.7125121%" y2="0%" id="linearGradient-29">
            <stop stop-color="#808080" stop-opacity="0.25" offset="0%"></stop>
            <stop stop-color="#808080" stop-opacity="0.12" offset="54%"></stop>
            <stop stop-color="#808080" stop-opacity="0.1" offset="100%"></stop>
        </linearGradient>
        <linearGradient x1="49.8882878%" y1="100%" x2="49.8882878%" y2="-0.0358937545%" id="linearGradient-30">
            <stop stop-color="#808080" stop-opacity="0.25" offset="0%"></stop>
            <stop stop-color="#808080" stop-opacity="0.12" offset="54%"></stop>
            <stop stop-color="#808080" stop-opacity="0.1" offset="100%"></stop>
        </linearGradient>
        <linearGradient x1="50.0332566%" y1="99.8580861%" x2="50.0332566%" y2="-0.133902898%" id="linearGradient-31">
            <stop stop-color="#808080" stop-opacity="0.25" offset="0%"></stop>
            <stop stop-color="#808080" stop-opacity="0.12" offset="54%"></stop>
            <stop stop-color="#808080" stop-opacity="0.1" offset="100%"></stop>
        </linearGradient>
        <linearGradient x1="50.0832658%" y1="100%" x2="50.0832658%" y2="0%" id="linearGradient-32">
            <stop stop-color="#808080" stop-opacity="0.25" offset="0%"></stop>
            <stop stop-color="#808080" stop-opacity="0.12" offset="54%"></stop>
            <stop stop-color="#808080" stop-opacity="0.1" offset="100%"></stop>
        </linearGradient>
        <linearGradient x1="50.0735595%" y1="99.959167%" x2="50.0735595%" y2="4.64217386e-13%" id="linearGradient-33">
            <stop stop-color="#808080" stop-opacity="0.25" offset="0%"></stop>
            <stop stop-color="#808080" stop-opacity="0.12" offset="54%"></stop>
            <stop stop-color="#808080" stop-opacity="0.1" offset="100%"></stop>
        </linearGradient>
        <linearGradient x1="50.0087161%" y1="100.128096%" x2="50.0087161%" y2="0.0426985482%" id="linearGradient-34">
            <stop stop-color="#808080" stop-opacity="0.25" offset="0%"></stop>
            <stop stop-color="#808080" stop-opacity="0.12" offset="54%"></stop>
            <stop stop-color="#808080" stop-opacity="0.1" offset="100%"></stop>
        </linearGradient>
        <linearGradient x1="49.9915155%" y1="100.132392%" x2="49.9915155%" y2="0.13239188%" id="linearGradient-35">
            <stop stop-color="#808080" stop-opacity="0.25" offset="0%"></stop>
            <stop stop-color="#808080" stop-opacity="0.12" offset="54%"></stop>
            <stop stop-color="#808080" stop-opacity="0.1" offset="100%"></stop>
        </linearGradient>
    </defs>
    <g id="Page-1" stroke="none" stroke-width="1" fill="none" fill-rule="evenodd">
        <g id="Development--Inititation-&gt;-Welcome" transform="translate(-102.000000, -186.000000)">
            <g id="Onboarding-graphic-Welcome" transform="translate(102.000000, 186.000000)">
                <path d="M136.919774,25.2226415 C122.293785,24.7154717 108.363842,19.9833962 95.0621469,14.8075472 C81.760452,9.63169811 68.5853107,3.88981132 54.3096045,1.15698113 C45.1276836,-0.609056604 34.6259887,-0.858113208 27.2293785,4.0754717 C20.1129944,8.82113208 17.8079096,17.0218868 16.5717514,24.6158491 C15.640678,30.3350943 15.0937853,36.3554717 17.6429379,41.7101887 C19.4146893,45.4279245 22.5559322,48.5524528 24.7299435,52.1116981 C32.2937853,64.5033962 26.9468927,79.7818868 18.7525424,91.8792453 C14.9107345,97.5532075 10.4474576,102.973585 7.48022599,109.007547 C4.51299435,115.041509 3.14124294,121.969811 5.73785311,128.13283 C8.30960452,134.246038 14.440678,138.828679 21.0824859,142.055094 C34.5717514,148.609811 50.4610169,150.484528 65.9661017,151.548679 C100.277966,153.898868 134.770621,152.882264 169.172881,151.861132 C181.905085,151.485283 194.691525,151.102642 207.215819,149.130566 C214.171751,148.034717 221.351412,146.295849 226.40226,142.098113 C232.811299,136.770566 234.4,127.750189 230.103955,121.068679 C222.899435,109.863396 202.985311,107.080755 197.943503,95.0558491 C195.172881,88.4354717 198.018079,81.0633962 202.047458,74.925283 C210.689266,61.754717 225.172881,50.2007547 225.934463,35.1486792 C226.458757,24.810566 219.496045,14.4566038 208.729944,9.56377358 C197.446328,4.4354717 181.79661,5.08075472 173.475706,13.5667925 C164.899435,22.3086792 149.830508,25.6732075 136.919774,25.2226415 Z" id="Path" fill="#3EB7F9" opacity="0.1"></path>
                <rect id="Rectangle" fill="#E8E9ED" x="0" y="27.9577358" width="58.6463277" height="58.7569811"></rect>
                <rect id="Rectangle" fill="#E8E9ED" x="181.353672" y="27.9577358" width="58.6463277" height="58.7569811"></rect>
                <path d="M32.8564972,7.25207547 L32.2711864,6.65207547 C32.2476432,6.62569692 32.2138476,6.61083179 32.1785311,6.61132075 C32.1430907,6.61020499 32.1090422,6.62518131 32.0858757,6.65207547 L28.040678,10.7275472 L26.5672316,9.25358491 C26.5432902,9.22780258 26.5097248,9.21315727 26.4745763,9.21315727 C26.4394277,9.21315727 26.4058624,9.22780258 26.3819209,9.25358491 L25.7920904,9.8445283 C25.7661143,9.86931414 25.7514124,9.90368318 25.7514124,9.93962264 C25.7514124,9.9755621 25.7661143,10.0099311 25.7920904,10.034717 L27.6497175,11.8935849 C27.7494538,12.0042422 27.8877816,12.0723209 28.0361582,12.0837736 C28.1827275,12.0709466 28.3198432,12.0058745 28.4225989,11.9003774 L32.8587571,7.44226415 C32.9070963,7.38811731 32.9070963,7.30622231 32.8587571,7.25207547 L32.8564972,7.25207547 Z" id="Path" fill="#70D44B" opacity="0.5"></path>
                <path d="M29.3220339,3.3690566 C32.1668107,3.37109753 34.6141162,5.38589588 35.167627,8.18157027 C35.7211377,10.9772447 34.2267409,13.7754016 31.5981358,14.8652011 C28.9695306,15.9550007 25.9385938,15.0330124 24.3584909,12.6629553 C22.7783879,10.2928982 23.0890633,7.13466207 25.100565,5.11924528 C26.2180727,3.9945969 27.7380905,3.36440916 29.3220339,3.3690566 Z M29.3220339,2.43849057 C26.5312673,2.43849072 24.0153401,4.12290087 22.9475712,6.70618544 C21.8798023,9.28947001 22.470503,12.2628168 24.4441962,14.2395862 C26.4178894,16.2163557 29.38583,16.8071968 31.9638996,15.736567 C34.5419693,14.6659372 36.222383,12.1447113 36.2214689,9.34867925 C36.2220691,7.51540663 35.4952869,5.75708051 34.2011967,4.46097329 C32.9071065,3.16486608 31.1518537,2.43728872 29.3220339,2.43849057 Z" id="Shape" fill="#008AAB" fill-rule="nonzero" opacity="0.5"></path>
                <path d="M78.1514124,26.5720755 L77.4146893,25.8158491 C77.3850993,25.7835659 77.3431786,25.7654483 77.299435,25.7660377 C77.2547942,25.7641691 77.2116685,25.7824491 77.1819209,25.8158491 L72.0903955,30.9554717 L70.2350282,29.0988679 C70.2051103,29.0670507 70.1634044,29.049026 70.119774,29.0490566 C70.0754673,29.048938 70.0330284,29.0669268 70.0022599,29.0988679 L69.2587571,29.8437736 C69.2259851,29.8745887 69.2073948,29.9176123 69.2073948,29.9626415 C69.2073948,30.0076707 69.2259851,30.0506943 69.2587571,30.0815094 L71.5954802,32.4181132 C71.7217861,32.5570832 71.8965142,32.6421807 72.0836158,32.6558491 C72.2664931,32.6401247 72.4378673,32.5598922 72.5672316,32.429434 L78.1491525,26.805283 C78.2028965,26.7394153 78.2028965,26.6447356 78.1491525,26.5788679 L78.1514124,26.5720755 Z" id="Path" fill="#70D44B" opacity="0.8"></path>
                <path d="M73.699435,21.6815094 C77.2840342,21.6823085 80.3689473,24.2197795 81.0677299,27.7422423 C81.7665124,31.2647052 79.8845663,34.7912182 76.5727137,36.1652959 C73.2608612,37.5393736 69.4413927,36.3783603 67.4499382,33.3922232 C65.4584836,30.4060861 65.8496266,26.4264099 68.3841808,23.8867925 C69.7902328,22.4690524 71.7046015,21.6747866 73.699435,21.6815094 Z M73.699435,20.5109434 C68.9029824,20.5109434 65.0146893,24.4065729 65.0146893,29.2120755 C65.0146893,34.017578 68.9029824,37.9132075 73.699435,37.9132075 C78.4958877,37.9132075 82.3841808,34.017578 82.3841808,29.2120755 C82.3847804,26.9042076 81.4699756,24.6906916 79.8411398,23.0587825 C78.2123041,21.4268735 76.0029566,20.5103426 73.699435,20.5109434 Z" id="Shape" fill="#008AAB" fill-rule="nonzero" opacity="0.8"></path>
                <path d="M210.675706,3.3690566 C213.520483,3.37109753 215.967789,5.38589588 216.521299,8.18157027 C217.07481,10.9772447 215.580413,13.7754016 212.951808,14.8652011 C210.323203,15.9550007 207.292266,15.0330124 205.712163,12.6629553 C204.13206,10.2928982 204.442736,7.13466207 206.454237,5.11924528 C207.571745,3.9945969 209.091763,3.36440916 210.675706,3.3690566 Z M210.675706,2.43849057 C207.88494,2.43849072 205.369012,4.12290087 204.301243,6.70618544 C203.233475,9.28947001 203.824175,12.2628168 205.797868,14.2395862 C207.771562,16.2163557 210.739502,16.8071968 213.317572,15.736567 C215.895642,14.6659372 217.576055,12.1447113 217.575141,9.34867925 C217.575741,7.51540663 216.848959,5.75708051 215.554869,4.46097329 C214.260779,3.16486608 212.505526,2.43728872 210.675706,2.43849057 Z" id="Shape" fill="#008AAB" fill-rule="nonzero" opacity="0.5"></path>
                <path d="M165.981921,21.6815094 C169.567579,21.6769038 172.656905,24.2111894 173.359863,27.7339031 C174.062822,31.2566168 172.183531,34.7861364 168.871731,36.1631195 C165.559931,37.5401026 161.738472,36.3808459 159.745304,33.3945767 C157.752135,30.4083075 158.142664,26.4271652 160.677966,23.8867925 C162.084877,22.4703369 163.998686,21.6763035 165.99322,21.6815094 L165.981921,21.6815094 Z M165.99322,20.5109434 C161.196768,20.5109434 157.308475,24.4065729 157.308475,29.2120755 C157.308475,34.017578 161.196768,37.9132075 165.99322,37.9132075 C170.789673,37.9132075 174.677966,34.017578 174.677966,29.2120755 C174.678569,26.9022443 173.762213,24.6870098 172.130933,23.0547747 C170.499652,21.4225395 168.287399,20.5073361 165.981921,20.5109434 L165.99322,20.5109434 Z" id="Shape" fill="#008AAB" fill-rule="nonzero" opacity="0.8"></path>
                <path d="M119.622599,35.4883019 C124.359285,35.4914821 128.434298,38.8460694 129.356055,43.5009702 C130.277812,48.155871 127.789664,52.8149956 123.412937,54.6296179 C119.03621,56.4442403 113.989541,54.9091051 111.358611,50.9628393 C108.727682,47.0165735 109.245037,41.7579575 112.59435,38.4022642 C114.454378,36.5291094 116.98534,35.4797544 119.622599,35.4883019 Z M119.622599,33.9396226 C113.280997,33.9396226 108.140113,39.0902065 108.140113,45.4437736 C108.140113,51.7973407 113.280997,56.9479245 119.622599,56.9479245 C125.964201,56.9479245 131.105085,51.7973407 131.105085,45.4437736 C131.105684,42.3924989 129.896118,39.4660241 127.742605,37.3084471 C125.589091,35.15087 122.668127,33.9390219 119.622599,33.9396226 Z" id="Shape" fill="#008AAB" fill-rule="nonzero"></path>
                <rect id="Rectangle" fill="#F3F5F7" x="41.0214689" y="43.3584906" width="65.3559322" height="65.4792453"></rect>
                <rect id="Rectangle" fill="#F3F5F7" x="133.303955" y="43.3584906" width="65.3559322" height="65.4792453"></rect>
                <rect id="Rectangle" fill="#000000" opacity="0.1" x="5.85988701" y="38.3886792" width="21.7988701" height="2.42716981"></rect>
                <rect id="Rectangle" fill="#000000" opacity="0.1" x="191.907345" y="38.3886792" width="21.7988701" height="2.42716981"></rect>
                <path d="M158.461017,140.017358 C158.461017,140.017358 164.124294,129.966792 172.653107,127.070943 C176.237853,125.879203 179.340004,123.554557 181.493785,120.446038 C182.504102,118.959669 183.37702,117.384088 184.101695,115.738868" id="Path" stroke="#535461" stroke-width="0.9"></path>
                <path d="M189.464407,113.889057 C188.492655,114.833208 183.966102,115.811321 183.966102,115.811321 C183.966102,115.811321 185.077966,111.307925 186.049718,110.361509 C187.021988,109.41679 188.574574,109.440612 189.517514,110.414717 C190.460454,111.388822 190.436677,112.944337 189.464407,113.889057 Z" id="Path" fill="#008AAB"></path>
                <path d="M186.903955,122.035472 C185.575141,122.300377 181.254237,120.656604 181.254237,120.656604 C181.254237,120.656604 184.628249,117.486792 185.957062,117.217358 C187.26964,116.987502 188.525186,117.849925 188.78438,119.159416 C189.043574,120.468907 188.211531,121.746096 186.910734,122.035472 L186.903955,122.035472 Z" id="Path" fill="#008AAB"></path>
                <path d="M177.581921,130.85434 C176.302825,130.401509 173.39435,126.801509 173.39435,126.801509 C173.39435,126.801509 177.914124,125.766792 179.186441,126.210566 C180.014409,126.497727 180.626573,127.205623 180.792337,128.067598 C180.958101,128.929572 180.652281,129.814671 179.990077,130.389485 C179.327873,130.964299 178.409889,131.1415 177.581921,130.85434 Z" id="Path" fill="#008AAB"></path>
                <path d="M169.039548,135.93283 C167.701695,135.706415 164.225989,132.647547 164.225989,132.647547 C164.225989,132.647547 168.501695,130.86566 169.837288,131.085283 C170.708305,131.220812 171.439687,131.814319 171.752925,132.639798 C172.066164,133.465277 171.91305,134.395684 171.351891,135.076724 C170.790731,135.757763 169.907889,136.084621 169.039548,135.93283 Z" id="Path" fill="#008AAB"></path>
                <path d="M177.473446,117.138113 C177.473446,118.496604 179.923164,122.429434 179.923164,122.429434 C179.923164,122.429434 182.372881,118.496604 182.372881,117.140377 C182.372881,115.783633 181.275094,114.683774 179.920904,114.683774 C178.566714,114.683774 177.468927,115.783633 177.468927,117.140377 L177.473446,117.138113 Z" id="Path" fill="#008AAB"></path>
                <path d="M167.545763,123.210566 C167.950282,124.50566 171.464407,127.526038 171.464407,127.526038 C171.464407,127.526038 172.630508,123.038491 172.225989,121.743396 C171.964398,120.905777 171.276655,120.271605 170.421825,120.079768 C169.566996,119.88793 168.67495,120.167571 168.081712,120.813352 C167.488474,121.459134 167.284172,122.372947 167.545763,123.210566 Z" id="Path" fill="#008AAB"></path>
                <path d="M158.705085,130.430943 C158.885876,131.775849 161.837288,135.346415 161.837288,135.346415 C161.837288,135.346415 163.744633,131.121509 163.566102,129.776604 C163.449435,128.906628 162.878379,128.165096 162.068044,127.831335 C161.257709,127.497574 160.331204,127.622291 159.637535,128.158505 C158.943866,128.694719 158.588418,129.560968 158.705085,130.430943 Z" id="Path" fill="#008AAB"></path>
                <path d="M189.464407,113.889057 C188.492655,114.833208 183.966102,115.811321 183.966102,115.811321 C183.966102,115.811321 185.077966,111.307925 186.049718,110.361509 C187.021988,109.41679 188.574574,109.440612 189.517514,110.414717 C190.460454,111.388822 190.436677,112.944337 189.464407,113.889057 Z" id="Path" fill="#000000" opacity="0.25"></path>
                <path d="M186.903955,122.035472 C185.575141,122.300377 181.254237,120.656604 181.254237,120.656604 C181.254237,120.656604 184.628249,117.486792 185.957062,117.217358 C187.26964,116.987502 188.525186,117.849925 188.78438,119.159416 C189.043574,120.468907 188.211531,121.746096 186.910734,122.035472 L186.903955,122.035472 Z" id="Path" fill="#000000" opacity="0.25"></path>
                <path d="M177.581921,130.85434 C176.302825,130.401509 173.39435,126.801509 173.39435,126.801509 C173.39435,126.801509 177.914124,125.766792 179.186441,126.210566 C180.014409,126.497727 180.626573,127.205623 180.792337,128.067598 C180.958101,128.929572 180.652281,129.814671 179.990077,130.389485 C179.327873,130.964299 178.409889,131.1415 177.581921,130.85434 Z" id="Path" fill="#000000" opacity="0.25"></path>
                <path d="M169.039548,135.93283 C167.701695,135.706415 164.225989,132.647547 164.225989,132.647547 C164.225989,132.647547 168.501695,130.86566 169.837288,131.085283 C170.708305,131.220812 171.439687,131.814319 171.752925,132.639798 C172.066164,133.465277 171.91305,134.395684 171.351891,135.076724 C170.790731,135.757763 169.907889,136.084621 169.039548,135.93283 Z" id="Path" fill="#000000" opacity="0.25"></path>
                <path d="M177.473446,117.138113 C177.473446,118.496604 179.923164,122.429434 179.923164,122.429434 C179.923164,122.429434 182.372881,118.496604 182.372881,117.140377 C182.372881,115.783633 181.275094,114.683774 179.920904,114.683774 C178.566714,114.683774 177.468927,115.783633 177.468927,117.140377 L177.473446,117.138113 Z" id="Path" fill="#000000" opacity="0.25"></path>
                <path d="M167.545763,123.210566 C167.950282,124.50566 171.464407,127.526038 171.464407,127.526038 C171.464407,127.526038 172.630508,123.038491 172.225989,121.743396 C171.964398,120.905777 171.276655,120.271605 170.421825,120.079768 C169.566996,119.88793 168.67495,120.167571 168.081712,120.813352 C167.488474,121.459134 167.284172,122.372947 167.545763,123.210566 Z" id="Path" fill="#000000" opacity="0.25"></path>
                <path d="M158.705085,130.430943 C158.885876,131.775849 161.837288,135.346415 161.837288,135.346415 C161.837288,135.346415 163.744633,131.121509 163.566102,129.776604 C163.449435,128.906628 162.878379,128.165096 162.068044,127.831335 C161.257709,127.497574 160.331204,127.622291 159.637535,128.158505 C158.943866,128.694719 158.588418,129.560968 158.705085,130.430943 Z" id="Path" fill="#000000" opacity="0.25"></path>
                <path d="M158.786441,139.818113 C158.786441,139.818113 159.900565,128.332075 166.524294,122.221132 C169.319747,119.673778 171.21564,116.287143 171.927684,112.569057 C172.250635,110.801809 172.411756,109.008696 172.409073,107.212075" id="Path" stroke="#535461" stroke-width="0.9"></path>
                <path d="M176.562712,103.342642 C176.056497,104.601509 172.314124,107.332075 172.314124,107.332075 C172.314124,107.332075 171.507345,102.765283 172.013559,101.506415 C172.340952,100.692254 173.077007,100.11493 173.944459,99.9919142 C174.811912,99.8688989 175.678976,100.218882 176.219036,100.910027 C176.759096,101.601173 176.890104,102.52848 176.562712,103.342642 Z" id="Path" fill="#008AAB"></path>
                <path d="M177.516384,111.830943 C176.40904,112.612075 171.787571,112.867925 171.787571,112.867925 C171.787571,112.867925 173.59548,108.593208 174.696045,107.81434 C175.802567,107.08361 177.288378,107.366008 178.050912,108.451975 C178.813446,109.537943 178.576713,111.034428 177.516384,111.830943 Z" id="Path" fill="#008AAB"></path>
                <path d="M172.560452,123.676981 C171.20452,123.790189 167.093785,121.673208 167.093785,121.673208 C167.093785,121.673208 170.8,118.895094 172.149153,118.781887 C173.031093,118.691426 173.893085,119.084983 174.403569,119.811179 C174.914054,120.537376 174.993516,121.483095 174.611391,122.284574 C174.229266,123.086053 173.445075,123.61845 172.560452,123.676981 Z" id="Path" fill="#008AAB"></path>
                <path d="M166.79774,131.793962 C165.484746,132.133585 161.068927,130.743396 161.068927,130.743396 C161.068927,130.743396 164.255367,127.378868 165.566102,127.036981 C166.864846,126.726866 168.172531,127.514802 168.507916,128.80955 C168.843301,130.104297 168.083099,131.429911 166.79774,131.791698 L166.79774,131.793962 Z" id="Path" fill="#008AAB"></path>
                <path d="M166.912994,111.183396 C167.462147,112.424151 171.292655,115.032453 171.292655,115.032453 C171.292655,115.032453 171.945763,110.440755 171.39887,109.2 C170.85033,107.958922 169.401452,107.398349 168.162712,107.947925 C166.923971,108.4975 166.364454,109.949111 166.912994,111.190189 L166.912994,111.183396 Z" id="Path" fill="#008AAB"></path>
                <path d="M160.291525,120.760755 C161.19548,121.779623 165.620339,123.115472 165.620339,123.115472 C165.620339,123.115472 164.870056,118.537358 163.977401,117.518491 C163.083761,116.498744 161.534211,116.397881 160.516384,117.293208 C159.498558,118.188534 159.397885,119.741008 160.291525,120.760755 Z" id="Path" fill="#008AAB"></path>
                <path d="M155.132203,130.953962 C155.839548,132.110943 159.984181,134.178113 159.984181,134.178113 C159.984181,134.178113 160.020339,129.538868 159.306215,128.381887 C158.597293,127.22584 157.087203,126.864458 155.933333,127.574717 C154.779464,128.284976 154.418762,129.797916 155.127684,130.953962 L155.132203,130.953962 Z" id="Path" fill="#008AAB"></path>
                <rect id="Rectangle" fill="#000000" opacity="0.1" x="49.4576271" y="57.3350943" width="21.7988701" height="2.42716981"></rect>
                <rect id="Rectangle" fill="#000000" opacity="0.1" x="89.6271186" y="78.6701887" width="13.0146893" height="2.42716981"></rect>
                <rect id="Rectangle" fill="#000000" opacity="0.1" x="89.6271186" y="94.9584906" width="19.2723164" height="2.42716981"></rect>
                <rect id="Rectangle" fill="#000000" opacity="0.1" x="49.4576271" y="65.8890566" width="21.7988701" height="2.42716981"></rect>
                <rect id="Rectangle" fill="#000000" opacity="0.1" x="147.552542" y="57.3350943" width="21.7988701" height="2.42716981"></rect>
                <rect id="Rectangle" fill="#000000" opacity="0.1" x="147.552542" y="65.8890566" width="21.7988701" height="2.42716981"></rect>
                <path d="M116.533333,48.8264151 L117.143503,48.0249057 C117.730512,48.6011655 118.518295,48.9259679 119.340113,48.930566 C120.370621,48.930566 121.134463,48.4256604 121.134463,47.6083019 C121.134463,46.7207547 120.40226,46.1366038 118.372881,46.1366038 L118.372881,45.2150943 C120.180791,45.2150943 120.858757,44.6196226 120.858757,43.8339623 C120.858757,43.1230189 120.250847,42.6792453 119.349153,42.6792453 C118.646662,42.7000009 117.975475,42.9750952 117.459887,43.4535849 L116.811299,42.6792453 C117.523857,42.0409871 118.443124,41.6830432 119.39887,41.6716981 C120.960452,41.6716981 122.110734,42.4233962 122.110734,43.7411321 C122.110734,44.669434 121.432768,45.2762264 120.456497,45.6113208 L120.456497,45.6611321 C121.502825,45.8875472 122.379661,46.5826415 122.379661,47.6671698 C122.379661,49.0981132 121.023729,49.9562264 119.423729,49.9562264 C118.063277,49.9539623 117.129944,49.4354717 116.533333,48.8264151 Z" id="Path" fill="#008AAB"></path>
                <g id="Group" opacity="0.8" transform="translate(162.711864, 25.358491)" fill="#008AAB">
                    <path d="M3.99096045,2.60377358 C3.99096045,2.1690566 4.02937853,1.61433962 4.0519774,1.17962264 L3.99548023,1.17962264 C3.74689266,1.5645283 3.46440678,1.94716981 3.21129944,2.32981132 L1.40338983,4.65283019 L6.20338983,4.65283019 L6.20338983,5.58792453 L0.164971751,5.58792453 L0.164971751,4.7954717 L3.76949153,0.040754717 L5.0960452,0.040754717 L5.0960452,7.60075472 L3.99096045,7.60075472 L3.99096045,2.60377358 Z" id="Path"></path>
                </g>
                <g id="Group" opacity="0.5" transform="translate(208.135593, 6.792453)" fill="#008AAB">
                    <path d="M0.192090395,4.95396226 L0.601129944,4.39471698 C0.996571738,4.78307739 1.527618,5.00158269 2.08135593,5.00377358 C2.80903955,5.00377358 3.38079096,4.5690566 3.38079096,3.85584906 C3.38079096,3.14264151 2.87683616,2.75773585 2.12881356,2.75773585 C1.75000773,2.75458063 1.37878527,2.86410876 1.06214689,3.07245283 L0.637288136,2.79849057 L0.809039548,0.124528302 L3.97288136,0.124528302 L3.97288136,0.860377358 L1.55480226,0.860377358 L1.42146893,2.32528302 C1.71590846,2.19133894 2.03596323,2.12334386 2.35932203,2.12603774 C3.39661017,2.12603774 4.24180791,2.66037736 4.24180791,3.84226415 C4.24180791,5.02415094 3.2519774,5.71471698 2.18305085,5.71471698 C1.44483793,5.7364225 0.728394176,5.4626662 0.192090395,4.95396226 Z" id="Path"></path>
                </g>
                <rect id="Rectangle" fill="#008AAB" opacity="0.1" x="78.4542373" y="64.1479245" width="80.7887006" height="80.9411321"></rect>
                <rect id="Rectangle" fill="#FFFFFF" x="81.1661017" y="60.2988679" width="80.7887006" height="80.9411321"></rect>
                <rect id="Rectangle" fill="#008AAB" opacity="0.5" x="89.6271186" y="69.2649057" width="63.8644068" height="2.42716981"></rect>
                <rect id="Rectangle" fill="#000000" opacity="0.1" x="89.6271186" y="86.8143396" width="40.6666667" height="2.42716981"></rect>
                <rect id="Rectangle" fill="#000000" opacity="0.1" x="89.6271186" y="103.104906" width="39.4576271" height="2.42716981"></rect>
                <rect id="Rectangle" fill="#000000" opacity="0.1" x="89.6271186" y="111.249057" width="53.7875706" height="2.42716981"></rect>
                <path d="M141.812429,87.029434 L141.534463,86.7418868 C141.522155,86.7304514 141.50605,86.7239972 141.489266,86.7237736 C141.473125,86.7238838 141.457686,86.7303968 141.446328,86.7418868 L139.518644,88.6890566 L138.815819,87.9849057 C138.803295,87.9738163 138.787324,87.9674158 138.770621,87.9667925 C138.754578,87.9673575 138.739299,87.9738028 138.727684,87.9849057 L138.445198,88.2679245 C138.433051,88.2798487 138.426205,88.2961695 138.426205,88.3132075 C138.426205,88.3302456 138.433051,88.3465664 138.445198,88.3584906 L139.331073,89.2437736 C139.379248,89.2962759 139.445431,89.3286211 139.516384,89.3343396 C139.586163,89.3284575 139.651331,89.2970209 139.699435,89.2460377 L141.812429,87.12 C141.833582,87.0935306 141.833582,87.0559034 141.812429,87.029434 Z" id="Path" fill="#70D44B" opacity="0.5"></path>
                <path d="M140.128814,85.1728302 C141.487469,85.1718477 142.657554,86.1326979 142.923319,87.467621 C143.189084,88.802544 142.476486,90.1396266 141.221426,90.6609646 C139.966367,91.1823025 138.518509,90.7426496 137.76352,89.610945 C137.00853,88.4792405 137.156751,86.9707804 138.117514,86.0083019 C138.649586,85.4717373 139.373887,85.1708708 140.128814,85.1728302 Z M140.128814,84.7313208 C138.798476,84.730405 137.598666,85.5327093 137.089146,86.7639249 C136.579625,87.9951406 136.860801,89.4126437 137.801491,90.3551095 C138.742182,91.2975753 140.157016,91.5792811 141.385913,91.0687993 C142.61481,90.5583175 143.415603,89.3562439 143.414689,88.0233962 C143.412195,86.2070018 141.941789,84.7358473 140.128814,84.7358491 L140.128814,84.7313208 Z" id="Shape" fill="#008AAB" fill-rule="nonzero" opacity="0.5"></path>
                <path d="M141.812429,103.317736 L141.534463,103.032453 C141.52272,103.020152 141.506237,103.013547 141.489266,103.01434 C141.472962,103.013597 141.457191,103.02025 141.446328,103.032453 L139.518644,104.977358 L138.815819,104.275472 C138.804146,104.262804 138.787826,104.255447 138.770621,104.255094 C138.754084,104.255528 138.738495,104.262926 138.727684,104.275472 L138.445198,104.556226 C138.433051,104.568151 138.426205,104.584471 138.426205,104.601509 C138.426205,104.618547 138.433051,104.634868 138.445198,104.646792 L139.331073,105.53434 C139.379248,105.586842 139.445431,105.619187 139.516384,105.624906 C139.585887,105.618026 139.650725,105.586749 139.699435,105.536604 L141.812429,103.408302 C141.833582,103.381832 141.833582,103.344205 141.812429,103.317736 Z" id="Path" fill="#70D44B" opacity="0.5"></path>
                <path d="M140.128814,101.474717 C141.487469,101.473735 142.657554,102.434585 142.923319,103.769508 C143.189084,105.104431 142.476486,106.441513 141.221426,106.962851 C139.966367,107.484189 138.518509,107.044536 137.76352,105.912832 C137.00853,104.781127 137.156751,103.272667 138.117514,102.310189 C138.649586,101.773624 139.373887,101.472758 140.128814,101.474717 Z M140.128814,101.021887 C138.798682,101.020971 137.599015,101.82303 137.089362,103.053968 C136.579709,104.284905 136.860469,105.702231 137.800692,106.644875 C138.740914,107.587519 140.155377,107.869784 141.384346,107.360015 C142.613316,106.850247 143.414689,105.648868 143.414689,104.316226 C143.415289,103.442721 143.069364,102.604787 142.453078,101.986914 C141.836792,101.36904 141.000674,101.021887 140.128814,101.021887 Z" id="Shape" fill="#008AAB" fill-rule="nonzero" opacity="0.5"></path>
                <ellipse id="Oval" fill="#3EB7F9" opacity="0.1" cx="115.821469" cy="177.142642" rx="16.1378531" ry="2.71245283"></ellipse>
                <path d="M29.5841808,156.989434 C29.5841808,156.989434 30.4248588,158.092075 29.1954802,159.758491 C27.9661017,161.424906 26.9491525,162.828679 27.360452,163.867925 C27.360452,163.867925 29.2158192,160.775094 30.7276836,160.732075 C32.239548,160.689057 31.2451977,158.850566 29.5841808,156.989434 Z" id="Path" fill="#008AAB"></path>
                <path d="M29.5841808,156.989434 C29.6573927,157.096247 29.7152119,157.212866 29.7559322,157.335849 C31.2293785,159.072453 32.0158192,160.691321 30.5988701,160.732075 C29.279096,160.770566 27.6949153,163.13434 27.3152542,163.732075 C27.327252,163.778326 27.3423523,163.823712 27.360452,163.867925 C27.360452,163.867925 29.2158192,160.775094 30.7276836,160.732075 C32.239548,160.689057 31.2451977,158.850566 29.5841808,156.989434 Z" id="Path" fill="#000000" opacity="0.1"></path>
                <path d="M31.1480226,158.395472 C31.1480226,158.784906 31.1050847,159.099623 31.0508475,159.099623 C30.9966102,159.099623 30.9536723,158.784906 30.9536723,158.395472 C30.9536723,158.006038 31.0079096,158.189434 31.0621469,158.189434 C31.1163842,158.189434 31.1480226,158.008302 31.1480226,158.395472 Z" id="Path" fill="#FFD037"></path>
                <path d="M31.6858757,158.859623 C31.3446328,159.045283 31.0485876,159.158491 31.0237288,159.110943 C30.9988701,159.063396 31.2497175,158.884528 31.5932203,158.687547 C31.9367232,158.490566 31.7988701,158.637736 31.819209,158.687547 C31.839548,158.737358 32.0248588,158.673962 31.6858757,158.859623 Z" id="Path" fill="#FFD037"></path>
                <path d="M25.1367232,156.989434 C25.1367232,156.989434 24.2937853,158.092075 25.5254237,159.758491 C26.7570621,161.424906 27.7694915,162.828679 27.360452,163.867925 C27.360452,163.867925 25.5028249,160.775094 23.9932203,160.732075 C22.4836158,160.689057 23.4734463,158.850566 25.1367232,156.989434 Z" id="Path" fill="#008AAB"></path>
                <path d="M25.1367232,156.989434 C25.0635113,157.096247 25.005692,157.212866 24.9649718,157.335849 C23.4892655,159.072453 22.7050847,160.691321 24.1220339,160.732075 C25.4418079,160.770566 27.0259887,163.13434 27.4056497,163.732075 C27.3920904,163.777358 27.3785311,163.822642 27.360452,163.867925 C27.360452,163.867925 25.5028249,160.775094 23.9932203,160.732075 C22.4836158,160.689057 23.4734463,158.850566 25.1367232,156.989434 Z" id="Path" fill="#000000" opacity="0.1"></path>
                <path d="M23.5706215,158.395472 C23.5706215,158.784906 23.6135593,159.099623 23.6677966,159.099623 C23.7220339,159.099623 23.7649718,158.784906 23.7649718,158.395472 C23.7649718,158.006038 23.7107345,158.189434 23.6564972,158.189434 C23.6022599,158.189434 23.5706215,158.008302 23.5706215,158.395472 Z" id="Path" fill="#FFD037"></path>
                <path d="M23.0350282,158.859623 C23.3740113,159.045283 23.6700565,159.158491 23.6971751,159.110943 C23.7242938,159.063396 23.4711864,158.884528 23.1276836,158.687547 C22.7841808,158.490566 22.9220339,158.637736 22.9016949,158.687547 C22.8813559,158.737358 22.6937853,158.673962 23.0350282,158.859623 Z" id="Path" fill="#FFD037"></path>
                <ellipse id="Oval" fill="#3EB7F9" opacity="0.1" cx="27.360452" cy="170.952453" rx="8.80225989" ry="1.35396226"></ellipse>
                <path d="M31.8915254,162.380377 L31.8485876,162.726792 L31.7898305,163.211321 L31.7649718,163.415094 L31.7062147,163.901887 L31.6813559,164.10566 L31.620339,164.590189 L30.9423729,170.123774 C30.8836158,170.617358 30.0768362,171.002264 29.1050847,171.002264 L25.6090395,171.002264 C24.6372881,171.002264 23.8327684,170.617358 23.7740113,170.123774 L23.0960452,164.590189 L23.0372881,164.10566 L23.0124294,163.901887 L22.9536723,163.415094 L22.9288136,163.211321 L22.8700565,162.726792 L22.8248588,162.380377 C22.7909605,162.101887 23.2271186,161.866415 23.7762712,161.866415 L30.9355932,161.866415 C31.4892655,161.866415 31.9254237,162.101887 31.8915254,162.380377 Z" id="Path" fill="#65617D"></path>
                <polygon id="Path" fill="#9D9CB5" points="31.8485876 162.724528 31.7898305 163.211321 22.9310734 163.211321 22.8700565 162.724528"></polygon>
                <polygon id="Path" fill="#9D9CB5" points="31.7649718 163.415094 31.7062147 163.901887 23.0146893 163.901887 22.9559322 163.415094"></polygon>
                <polygon id="Path" fill="#9D9CB5" points="31.6813559 164.103396 31.620339 164.590189 23.0983051 164.590189 23.039548 164.103396"></polygon>
                <path d="M133.523164,104.556226 C133.371751,104.246038 132.167232,100.25434 132.167232,100.25434 L129.846328,94.3516981 C129.846328,94.3516981 128.438418,86.5833962 126.336723,88.5215094 C124.235028,90.4596226 127.466667,95.1101887 127.466667,95.1101887 C127.466667,95.1101887 128.79322,98.5064151 128.725424,99.1856604 C128.657627,99.8649057 129.464407,102.355472 129.464407,102.355472 L129.20226,103.786415 C128.861017,103.763774 128.639548,103.763774 128.639548,103.763774 C128.639548,103.763774 128.431638,104.062642 128.232768,104.083019 C128.199007,104.087623 128.164632,104.082927 128.133333,104.069434 C127.907345,103.967547 127.159322,103.987925 126.777401,103.987925 C126.422637,103.940003 126.079122,103.829625 125.762712,103.661887 C125.631638,103.399245 124.890395,103.243019 124.232768,103.154717 C123.733333,101.909434 123.030508,100.698113 122.933333,99.3984906 C122.885508,99.0447303 122.955404,98.6850399 123.132203,98.3750943 C123.176046,98.3086923 123.22598,98.2465358 123.281356,98.189434 C123.464407,98.0037736 123.688136,97.8407547 123.891525,97.6686792 C123.99322,97.5826415 124.085876,97.4943396 124.174011,97.4037736 C125.898305,95.7283019 125.624859,93.1335849 124.061017,91.3381132 C122.253107,89.2618868 114.099435,84.794717 111.631638,88.6211321 C111.288136,89.1554717 111.276836,89.7735849 111.179661,90.3667925 C110.933723,91.8176421 110.254506,93.1596915 109.231638,94.2158491 C108.413559,95.0875472 107.340113,95.8913208 106.870056,96.8784906 L106.854237,96.8422642 C106.742194,97.0564024 106.660069,97.2849575 106.610169,97.5215094 C106.372881,98.7237736 107.181921,99.8807547 107.60678,101.051321 C107.751353,101.448924 107.855829,101.860031 107.918644,102.278491 L107.945763,102.020377 C108.049836,102.618136 108.085472,103.225842 108.051977,103.831698 C105.091525,104.438491 105.089266,109.550943 105.089266,109.550943 C105.089266,109.550943 104.725424,111.588679 104.786441,112.315472 C104.847458,113.042264 104.847458,114.631698 104.847458,115.018868 C104.847458,115.406038 104.481356,117.783396 104.440678,118.068679 C104.388701,118.383396 103.832768,119.891321 105.175141,120.230943 C105.267797,120.255849 105.367232,120.276226 105.468927,120.29434 C105.525424,121.514717 105.631638,124.075472 105.538983,124.641509 C105.538983,124.641509 106.027119,128.078491 106.431638,128.943396 C106.691429,129.454792 106.993819,129.943317 107.335593,130.403774 C107.306928,130.612491 107.237016,130.813388 107.129944,130.994717 C106.924294,131.295849 107.030508,131.542642 107.376271,131.649057 C107.365725,131.753208 107.352166,131.870943 107.335593,132.002264 C107.188701,133.329057 106.967232,135.962264 107.335593,137.298113 C107.853107,139.127547 107.882486,139.736604 107.882486,139.736604 C107.882208,140.034299 107.955169,140.327473 108.094915,140.590189 C108.320904,140.895849 108.705085,143.730566 108.705085,144.187925 C108.705085,144.645283 109.740113,148.761509 109.435028,149.737358 C109.129944,150.713208 109.374011,152.085283 109.374011,152.085283 C109.374011,152.085283 109.19096,154.49434 108.978531,155.01283 C108.766102,155.531321 108.673446,163.886038 109.00791,166.050566 C109.342373,168.215094 109.557062,170.015094 109.557062,170.015094 C109.557062,170.015094 109.331073,171.996226 109.525424,172.279245 C109.719774,172.562264 110.042938,174.201509 109.79887,174.292075 C109.554802,174.382642 109.435028,175.055094 109.435028,175.055094 C109.563602,175.251696 109.7024,175.441391 109.850847,175.623396 C109.756484,175.590209 109.664386,175.55088 109.575141,175.50566 C109.672316,175.643774 109.816949,175.833962 109.99322,176.042264 L109.828249,178.233962 C109.813578,178.411159 109.927871,178.573379 110.099435,178.618868 C111.188194,178.91809 112.35277,178.587592 113.123164,177.760755 C114.644068,176.205283 115.157062,176.420377 115.437288,175.473962 C115.464407,175.372075 115.491525,175.274717 115.511864,175.179623 C115.597358,174.807366 115.461337,174.419054 115.162399,174.181967 C114.86346,173.944881 114.455005,173.901374 114.112994,174.070189 C114.210169,173.390943 114.287006,172.646038 114.212429,172.218113 C114.061017,171.335094 114.090395,169.016604 114.090395,169.016604 L113.877966,157.922264 C113.877966,157.922264 114.273446,155.728302 114.729944,154.874717 C115.186441,154.021132 115.125424,151.02566 115.125424,151.02566 L115.642938,141.206038 L116.158192,136.451321 C116.158192,136.451321 116.644068,134.805283 117.251977,136.634717 C117.251977,136.634717 116.917514,140.323019 117.071186,141.208302 C117.224859,142.093585 117.435028,146.390943 117.283616,147.337358 C117.132203,148.283774 116.461017,153.466415 116.888136,154.777358 C117.315254,156.088302 117.769492,157.673208 117.679096,158.191698 C117.588701,158.710189 117.283616,169.965283 117.283616,169.965283 C117.283616,169.965283 118.103955,172.129811 117.496045,172.831698 C116.888136,173.533585 117.466667,176.338868 117.466667,176.338868 C117.466667,176.338868 117.538983,176.390943 117.665537,176.46566 L117.647458,176.692075 L117.457627,179.21434 C117.44389,179.39128 117.557803,179.552961 117.728814,179.599245 C118.817568,179.897414 119.9816,179.567069 120.752542,178.741132 C122.273446,177.18566 122.786441,177.398491 123.066667,176.45434 C123.093785,176.352453 123.120904,176.25283 123.143503,176.157736 C123.237643,175.743828 123.058386,175.315793 122.697645,175.093104 C122.336905,174.870416 121.874699,174.902469 121.548023,175.17283 C121.537804,175.183825 121.526439,175.193693 121.514124,175.202264 C121.475706,175.236226 121.435028,175.26566 121.39435,175.295094 L121.335593,175.333585 C121.487006,174.636226 121.708475,173.447547 121.60452,172.886038 C121.453107,172.061887 121.755932,169.562264 121.755932,169.562264 C121.755932,169.562264 122.639548,166.573585 122.659887,165.384906 C122.680226,164.196226 122.903955,155.875472 122.903955,155.875472 C122.903955,155.875472 122.874576,152.003774 122.99661,151.059623 C123.118644,150.115472 124.090395,141.941887 125.064407,139.512453 C125.812429,137.642264 126.146893,132.876226 125.948023,130.455849 C125.936723,130.333585 125.925424,130.229434 125.914124,130.111698 C127.105085,129.215094 127.231638,127.738868 127.231638,127.738868 C127.231638,127.738868 126.135593,125.624151 125.080226,124.729811 C124.024859,123.835472 123.780791,122.291321 123.821469,121.639245 C123.84008,121.241389 123.7104,120.850808 123.457627,120.543396 C123.457627,120.543396 122.969492,118.958491 122.644068,118.795472 C122.617366,118.782167 122.593556,118.763699 122.574011,118.741132 C122.348023,118.501132 122.522034,117.819623 122.522034,117.819623 L122.522034,117.799245 C122.558192,117.640755 122.79548,116.617358 122.718644,116.354717 C122.641808,116.092075 122.759322,114.729057 122.759322,114.729057 C122.759322,114.729057 123.532203,112.41283 123.410169,110.583396 C123.288136,108.753962 124.99209,108.914717 124.99209,108.914717 L130.255367,108.860377 L130.854237,108.860377 C131.106806,108.644448 131.334235,108.400639 131.532203,108.133585 C131.943056,108.21092 132.367238,108.106944 132.696045,107.848302 C133.812429,106.824906 133.674576,104.870943 133.523164,104.556226 Z M109.046328,120.405283 L109.084746,119.476981 L109.290395,119.653585 C109.353162,119.897138 109.353162,120.152673 109.290395,120.396226 C109.225839,120.628161 109.059532,120.818109 108.838418,120.912453 C108.8123,120.92536 108.787348,120.940511 108.763842,120.957736 L108.711864,120.427925 C108.926554,120.41434 109.046328,120.403019 109.046328,120.403019 L109.046328,120.405283 Z" id="Shape" fill="#000000" fill-rule="nonzero" opacity="0.1"></path>
                <path d="M128.79096,106.356226 C128.79096,106.356226 131.787571,108.287547 132.922034,107.261887 C134.056497,106.236226 133.916384,104.257358 133.762712,103.944906 C133.60904,103.632453 132.388701,99.6135849 132.388701,99.6135849 L130.031638,93.6633962 C130.031638,93.6633962 128.59887,85.8316981 126.461017,87.7766038 C124.323164,89.7215094 127.613559,94.4173585 127.613559,94.4173585 C127.613559,94.4173585 128.969492,97.8430189 128.892655,98.5290566 C128.815819,99.2150943 129.642938,101.728302 129.642938,101.728302 L128.79096,106.356226 Z" id="Path" fill="url(#linearGradient-1)"></path>
                <path d="M123.20226,176.130566 C123.179661,176.227925 123.154802,176.327547 123.123164,176.429434 C122.845198,177.382642 122.318644,177.167547 120.772881,178.73434 C119.986361,179.569048 118.804728,179.901574 117.699435,179.599245 C117.526272,179.553827 117.410253,179.390903 117.423729,179.212075 L117.618079,176.669434 L117.710734,175.444528 C117.710734,175.444528 120.171751,176.137358 121.425989,175.261132 C121.466667,175.231698 121.507345,175.202264 121.545763,175.168302 L121.581921,175.138868 C121.912673,174.867426 122.378572,174.835186 122.743431,175.058491 C123.108291,175.281797 123.292334,175.711822 123.20226,176.130566 Z" id="Path" fill="url(#linearGradient-2)"></path>
                <path d="M115.480226,175.170566 C115.459887,175.267925 115.432768,175.367547 115.40339,175.469434 C115.125424,176.422642 114.59887,176.207547 113.053107,177.77434 C112.266003,178.608087 111.085362,178.941204 109.979661,178.641509 C109.805038,178.596762 109.688381,178.431985 109.703955,178.252075 L109.896045,175.709434 L109.99096,174.484528 C109.99096,174.484528 112.451977,175.177358 113.703955,174.301132 C113.746893,174.271698 113.785311,174.242264 113.825989,174.208302 L113.862147,174.178868 C114.192372,173.906235 114.658833,173.873413 115.023851,174.097128 C115.388869,174.320842 115.572118,174.751862 115.480226,175.170566 Z" id="Path" fill="url(#linearGradient-3)"></path>
                <g id="Group" opacity="0.1" transform="translate(109.378531, 175.471698)" fill="url(#linearGradient-4)">
                    <path d="M3.55254237,0.081509434 L3.65423729,1.40150943 C2.23954802,2.80528302 0.55819209,0.722264151 0.0610169492,0.0294339623 C1.3559322,0.69509434 3.55254237,0.081509434 3.55254237,0.081509434 Z" id="Path"></path>
                </g>
                <g id="Group" opacity="0.1" transform="translate(117.514124, 175.245283)" fill="url(#linearGradient-5)">
                    <path d="M3.7220339,0.844528302 L3.90960452,0.722264151 C2.61694915,2.67396226 0.700564972,1.77283019 0.103954802,1.42415094 L0.196610169,0.199245283 C0.196610169,0.199245283 2.65762712,0.892075472 3.91186441,0.0158490566 C3.81242938,0.493584906 3.7220339,0.844528302 3.7220339,0.844528302 Z" id="Path"></path>
                </g>
                <path d="M125.166102,139.170566 C124.176271,141.629434 123.186441,149.868679 123.062147,150.821887 C122.937853,151.775094 122.969492,155.678491 122.969492,155.678491 L122.711864,165.269434 C122.682486,166.469434 121.785311,169.480755 121.785311,169.480755 C121.785311,169.480755 121.475706,172.003019 121.629379,172.831698 C121.783051,173.660377 121.227119,175.845283 121.227119,175.845283 L121.414689,175.723019 C119.866667,178.057358 117.423729,176.304906 117.423729,176.304906 C117.423729,176.304906 116.836158,173.476981 117.453107,172.770566 C118.070056,172.064151 117.238418,169.881509 117.238418,169.881509 C117.238418,169.881509 117.545763,158.538113 117.640678,158.015094 C117.735593,157.492075 117.288136,155.893585 116.836158,154.571321 C116.384181,153.249057 117.082486,148.023396 117.238418,147.070189 C117.39435,146.116981 117.175141,141.783396 117.012429,140.891321 C116.849718,139.999245 117.19774,136.279245 117.19774,136.279245 C116.578531,134.436226 116.083616,136.095849 116.083616,136.095849 L115.588701,140.923019 L115.080226,150.833208 C115.080226,150.833208 115.143503,153.844528 114.677966,154.704906 C114.212429,155.565283 113.812429,157.779623 113.812429,157.779623 L114.038418,168.969057 C114.038418,168.969057 114.00678,171.30566 114.162712,172.197736 C114.318644,173.089811 113.821469,175.394717 113.821469,175.394717 C112.090395,179.452075 109.301695,175.057358 109.301695,175.057358 C109.301695,175.057358 109.423729,174.378113 109.672316,174.287547 C109.920904,174.196981 109.579661,172.535094 109.39435,172.249811 C109.20904,171.964528 109.423729,169.98566 109.423729,169.98566 C109.423729,169.98566 109.20904,168.17434 108.867797,165.98717 C108.526554,163.8 108.621469,155.381887 108.836158,154.858868 C109.050847,154.335849 109.238418,151.915472 109.238418,151.915472 C109.238418,151.915472 108.99209,150.532075 109.301695,149.54717 C109.611299,148.562264 108.558192,144.41434 108.558192,143.952453 C108.558192,143.490566 108.155932,140.633208 107.938983,140.329811 C107.793432,140.066302 107.71576,139.77059 107.712994,139.469434 C107.712994,139.469434 107.681356,138.853585 107.154802,137.010566 C106.770621,135.652075 106.99661,133.007547 107.154802,131.671698 C107.20904,131.175849 107.254237,130.861132 107.254237,130.861132 C107.254237,130.861132 125.010169,128.001509 125.722034,128.649057 C125.889266,128.798491 126,129.328302 126.063277,130.066415 C126.264407,132.48 125.923164,137.286792 125.166102,139.170566 Z" id="Path" fill="url(#linearGradient-6)"></path>
                <g id="Group" opacity="0.1" transform="translate(118.418079, 152.830189)" fill="url(#linearGradient-7)">
                    <path d="M0.0338983051,0.162203774 C0.117514124,0.162203774 2.06779661,0.326660377 2.79774011,0.182479245 C3.52768362,0.0382981132 0.0338983051,0.162203774 0.0338983051,0.162203774 Z" id="Path"></path>
                </g>
                <g id="Group" opacity="0.1" transform="translate(118.418079, 153.962264)" fill="url(#linearGradient-8)">
                    <path d="M0.178531073,0.177973585 C0.178531073,0.177973585 2.89039548,0.646562264 3.0259887,0.403256604 C3.16158192,0.159950943 0.178531073,0.177973585 0.178531073,0.177973585 Z" id="Path"></path>
                </g>
                <g id="Group" opacity="0.1" transform="translate(110.282486, 153.509434)" fill="url(#linearGradient-9)">
                    <path d="M0.0451977401,0.139675472 C0.0451977401,0.139675472 1.44632768,0.200501887 2.21016949,0.547437736 C2.9740113,0.894373585 0.0451977401,0.139675472 0.0451977401,0.139675472 Z" id="Path"></path>
                </g>
                <path d="M105.233898,119.178113 C105.233898,119.178113 105.459887,123.461887 105.337853,124.218113 C105.337853,124.218113 105.832768,127.682264 106.241808,128.563019 C106.610856,129.265561 107.045973,129.931219 107.541243,130.550943 L108.757062,122.046792 L108.474576,119.135094 L105.233898,119.178113 Z" id="Path" fill="url(#linearGradient-10)"></path>
                <ellipse id="Oval" fill="url(#linearGradient-11)" cx="118.020339" cy="94.9313208" rx="4.76384181" ry="4.73433962"></ellipse>
                <path d="M115.545763,97.1456604 C115.545763,97.1456604 114.061017,100.034717 112.576271,101.388679 C111.091525,102.742642 121.484746,104.277736 121.731073,104.277736 C121.977401,104.277736 119.875706,98.130566 120.246328,97.3924528 C120.616949,96.6543396 115.545763,97.1456604 115.545763,97.1456604 Z" id="Path" fill="url(#linearGradient-12)"></path>
                <g id="Group" opacity="0.1" transform="translate(107.118644, 128.377358)" fill="url(#linearGradient-13)">
                    <path d="M18.9446328,1.66641509 C18.7114579,1.84387995 18.4542666,1.987203 18.180791,2.09207547 C16.2847458,2.83018868 14.2214689,3.85584906 12.8180791,3.45056604 C11.4146893,3.04528302 8.44745763,3.45056604 8.44745763,3.45056604 C8.44745763,3.45056604 2.46553672,2.95698113 1.2700565,3.2445283 C0.869170495,3.36659677 0.442761433,3.37755096 0.0361581921,3.27622642 C0.0903954802,2.78037736 0.13559322,2.46566038 0.13559322,2.46566038 C0.13559322,2.46566038 17.8915254,-0.393962264 18.6033898,0.253584906 C18.7706215,0.398490566 18.8813559,0.921509434 18.9446328,1.66641509 Z" id="Path"></path>
                </g>
                <path d="M127.362712,127.313208 C127.362712,127.313208 127.19774,129.350943 125.299435,130.100377 C123.40113,130.849811 121.340113,131.864151 119.936723,131.458868 C118.533333,131.053585 115.566102,131.458868 115.566102,131.458868 C115.566102,131.458868 109.584181,130.965283 108.388701,131.25283 C107.19322,131.540377 106.580791,131.171321 106.944633,130.636981 C107.308475,130.102642 107.276836,128.343396 107.276836,127.605283 C107.276836,126.86717 106.863277,123.873962 107.233898,123.341887 C107.60452,122.809811 107.934463,120.760755 108.677966,120.432453 C108.903446,120.33855 109.073966,120.146874 109.141243,119.911698 C109.206102,119.666113 109.206102,119.40785 109.141243,119.162264 C109.141243,119.162264 109.016949,119.060377 108.842938,118.906415 C108.40678,118.519245 107.665537,117.799245 107.902825,117.563774 C108.232768,117.235472 107.902825,115.102642 107.902825,115.102642 C107.902825,115.102642 107.118644,113.463396 107.40791,112.849811 C107.697175,112.236226 104.892655,109.000755 104.892655,109.000755 C104.892655,109.000755 104.892655,103.426415 108.282486,103.179623 C108.282486,103.179623 110.673446,103.263396 110.962712,102.196981 C111.251977,101.130566 113.148023,100.514717 113.148023,100.514717 L117.477966,101.458868 C117.477966,101.458868 121.319774,102.278491 122.015819,101.78717 C122.711864,101.295849 123.254237,102.441509 123.254237,102.441509 C123.254237,102.441509 125.645198,102.566038 125.893785,103.057358 C126.142373,103.548679 125.109605,108.344151 125.109605,108.344151 C125.109605,108.344151 123.376271,108.181132 123.500565,110.026415 C123.624859,111.871698 122.840678,114.206038 122.840678,114.206038 C122.840678,114.206038 122.716384,115.564528 122.8,115.845283 C122.883616,116.126038 122.637288,117.140377 122.59887,117.301132 L122.59887,117.321509 C122.59887,117.321509 122.427119,118.000755 122.650847,118.252075 C122.672406,118.273363 122.69673,118.291641 122.723164,118.306415 C123.053107,118.469434 123.548023,120.067925 123.548023,120.067925 C123.805948,120.377384 123.938963,120.772336 123.920904,121.175094 C123.880226,121.831698 124.126554,123.38717 125.19774,124.290566 C126.268927,125.193962 127.362712,127.313208 127.362712,127.313208 Z" id="Path" fill="url(#linearGradient-14)"></path>
                <path d="M108.964972,117.824151 L108.964972,117.998491 L108.888136,119.916226 C108.888136,119.916226 106.352542,120.12 104.969492,119.771321 C103.586441,119.422642 104.171751,117.907925 104.225989,117.590943 C104.225989,117.590943 104.225989,117.590943 104.225989,117.590943 C104.266667,117.303396 104.637288,114.90566 104.637288,114.516226 C104.637288,114.126792 104.637288,112.528302 104.576271,111.799245 C104.515254,111.070189 104.885876,109.012075 104.885876,109.012075 L105.152542,108.683774 L108.061017,109.790943 L108.964972,117.824151 Z" id="Path" fill="url(#linearGradient-15)"></path>
                <g id="Group" opacity="0.1" transform="translate(103.954802, 117.509434)" fill="url(#linearGradient-16)">
                    <path d="M5.00564972,0.493584906 L4.92881356,2.41132075 C4.92881356,2.41132075 2.39322034,2.61509434 1.01016949,2.26641509 C-0.372881356,1.91773585 0.212429379,0.403018868 0.266666667,0.0860377358 L5.00564972,0.493584906 Z" id="Path"></path>
                </g>
                <g id="Group" opacity="0.1" transform="translate(108.700565, 117.283019)" fill="url(#linearGradient-17)">
                    <path d="M0.451977401,2.62415094 C0.516836702,2.37856543 0.516836702,2.12030249 0.451977401,1.87471698 C0.451977401,1.87471698 0.327683616,1.77283019 0.153672316,1.61886792 C2.33898305,1.31773585 10.9875706,0.135849057 13.9028249,0.00905660377 L13.9028249,0.0294339623 C13.9028249,0.0294339623 13.7310734,0.708679245 13.9548023,0.96 L0.451977401,2.62415094 Z" id="Path"></path>
                </g>
                <g id="Group" opacity="0.1" transform="translate(121.355932, 121.358491)" fill="url(#linearGradient-18)">
                    <path d="M1.55254237,0.040754717 C1.55254237,0.040754717 2.08813559,3.05433962 0.0881355932,4.11622642 C0.0881355932,4.11622642 1.22259887,2.61509434 1.55254237,0.040754717 Z" id="Path"></path>
                </g>
                <g id="Group" opacity="0.1" transform="translate(109.604520, 124.981132)" fill="url(#linearGradient-19)">
                    <path d="M0.207909605,0.570566038 C0.207909605,0.570566038 5.03276836,-0.249056604 5.9819209,0.38490566 C6.93107345,1.01886792 0.207909605,0.570566038 0.207909605,0.570566038 Z" id="Path"></path>
                </g>
                <g id="Group" opacity="0.1" transform="translate(120.677966, 106.867925)" fill="url(#linearGradient-20)">
                    <path d="M0.55819209,0.0135849057 C0.55819209,0.0135849057 -0.183050847,3.04528302 0.372881356,3.74264151 C0.928813559,4.44 0.55819209,0.0135849057 0.55819209,0.0135849057 Z" id="Path"></path>
                </g>
                <g id="Group" opacity="0.1" transform="translate(107.118644, 104.377358)" fill="url(#linearGradient-21)">
                    <path d="M0.135254237,0.0226415094 C0.135254237,0.0226415094 0.811525424,1.15471698 0.403508475,2.31849057 C-0.00450847458,3.48226415 0.135254237,0.0226415094 0.135254237,0.0226415094 Z" id="Path"></path>
                </g>
                <path d="M105.853107,114.278491 C105.853107,114.278491 106.718644,114.792453 106.429379,115.591698 C106.140113,116.390943 105.853107,114.278491 105.853107,114.278491 Z" id="Path" fill="url(#linearGradient-22)"></path>
                <g id="Group" opacity="0.1" transform="translate(105.762712, 111.849057)" fill="url(#linearGradient-23)">
                    <path d="M0,0.0928301887 C0,0.0928301887 0.804519774,0.525283019 0.903954802,1.15924528 C1.00338983,1.79320755 0,0.0928301887 0,0.0928301887 Z" id="Path"></path>
                </g>
                <g id="Group" opacity="0.1" transform="translate(117.514124, 135.622642)" fill="url(#linearGradient-24)">
                    <path d="M0.176271186,0.830943396 C0.176271186,0.830943396 5.22937853,1.34490566 6.23954802,0.151698113 C6.23954802,0.156226415 1.68135593,1.05735849 0.176271186,0.830943396 Z" id="Path"></path>
                </g>
                <g id="Group" opacity="0.1" transform="translate(108.926554, 136.075472)" fill="url(#linearGradient-25)">
                    <path d="M0.0406779661,0.0928301887 C0.0406779661,0.0928301887 5.46440678,1.36301887 6.53559322,0.357735849 C6.53559322,0.357735849 1.87570621,0.706415094 0.0406779661,0.0928301887 Z" id="Path"></path>
                </g>
                <g id="Group" opacity="0.1" transform="translate(117.966102, 138.113208)" fill="url(#linearGradient-26)">
                    <path d="M0.115254237,0.00225283019 C0.115254237,0.00225283019 2.37514124,0.00225283019 3.43502825,0.0630792453 C4.49491525,0.12390566 0.115254237,0.00225283019 0.115254237,0.00225283019 Z" id="Path"></path>
                </g>
                <g id="Group" opacity="0.1" transform="translate(109.152542, 139.018868)" fill="url(#linearGradient-27)">
                    <path d="M0.185310734,0.0588679245 C0.185310734,0.0588679245 1.29943503,1.30867925 2.5559322,1.0845283 C3.81242938,0.860377358 0.185310734,0.0588679245 0.185310734,0.0588679245 Z" id="Path"></path>
                </g>
                <path d="M111.525424,87.8898113 C111.175141,88.4286792 111.163842,89.0513208 111.073446,89.6490566 C110.824462,91.1180902 110.133795,92.4759645 109.093785,93.5411321 C108.103955,94.5871698 106.745763,95.5335849 106.490395,96.810566 C106.248588,98.0241509 107.071186,99.1901887 107.502825,100.369811 C108.632768,103.483019 107.050847,106.74566 106.587571,109.958491 C106.461017,110.846038 106.614689,111.980377 107.717514,112.274717 C108.061017,112.367547 108.454237,112.356226 108.761582,112.501132 C109.177401,112.698113 109.303955,113.107925 109.380791,113.476981 C109.656096,114.796085 109.751129,116.146565 109.663277,117.491321 C109.613559,118.247547 109.559322,119.114717 110.275706,119.633208 C110.64116,119.859112 111.043579,120.018543 111.464407,120.104151 C112.59435,120.407547 114.056497,120.649811 114.818079,119.941132 C115.138983,119.644528 115.270056,119.223396 115.656497,118.987925 C116.253107,118.636981 117.100565,118.874717 117.853107,118.910943 C119.301352,118.973135 120.669269,118.243243 121.425989,117.004528 C122.033898,115.915472 121.981921,114.674717 121.755932,113.501887 C121.529944,112.329057 121.141243,111.169811 121.111864,109.983396 C121.076742,109.567689 121.169823,109.151197 121.378531,108.790189 C121.830508,108.083774 122.908475,107.762264 123.638418,107.205283 C125.00791,106.163774 124.99435,104.456604 124.506215,103.027925 C124.018079,101.599245 123.114124,100.233962 123.00339,98.7577358 C122.954704,98.4005002 123.026274,98.0371981 123.20678,97.725283 C123.446015,97.4290352 123.726022,97.1683201 124.038418,96.9509434 C126.038418,95.2732075 125.80339,92.5154717 124.149153,90.629434 C122.314124,88.530566 114.022599,84.0249057 111.525424,87.8898113 Z" id="Path" fill="url(#linearGradient-28)"></path>
                <g id="Group" opacity="0.1" transform="translate(106.214689, 92.603774)">
                    <path d="M1.54124294,9.05433962 C1.73799996,7.81537487 1.63017618,6.5470265 1.22711864,5.35924528 C1.00112994,4.76377358 0.691525424,4.17056604 0.463276836,3.57509434 C0.348409244,3.7884296 0.264693434,4.01717623 0.214689266,4.25433962 C-0.0293785311,5.46566038 0.795480226,6.63169811 1.22711864,7.81358491 C1.37272791,8.21568153 1.47795653,8.63132244 1.54124294,9.05433962 Z" id="Path" fill="url(#linearGradient-29)"></path>
                    <path d="M3.38983051,22.4807547 C3.47798337,21.1358933 3.3821808,19.7852708 3.10508475,18.4664151 C3.02824859,18.0973585 2.90169492,17.6875472 2.48813559,17.490566 C2.17853107,17.3433962 1.78531073,17.354717 1.44180791,17.2641509 C1.0166015,17.1618632 0.661747716,16.8697666 0.479096045,16.4716981 C0.418079096,16.7841509 0.361581921,17.0966038 0.316384181,17.4067925 C0.187570621,18.2943396 0.341242938,19.4286792 1.44632768,19.7230189 C1.78983051,19.8158491 2.18305085,19.8045283 2.49265537,19.949434 C2.90621469,20.1464151 3.03276836,20.5562264 3.10960452,20.925283 C3.23762793,21.5371096 3.32669647,22.156472 3.37627119,22.7796226 C3.37175141,22.6822642 3.38983051,22.5803774 3.38983051,22.4807547 Z" id="Path" fill="url(#linearGradient-30)"></path>
                    <path d="M15.1412429,22.0030189 C14.3852656,23.24137 13.018183,23.9712785 11.5706215,23.909434 C10.8180791,23.8732075 9.97062147,23.6354717 9.3740113,23.9864151 C8.97627119,24.2128302 8.85423729,24.6430189 8.53559322,24.9396226 C7.7740113,25.6483019 6.31186441,25.4060377 5.1819209,25.1026415 C4.76091616,25.0176334 4.35839402,24.8581608 3.99322034,24.6316981 C3.68121681,24.4058677 3.47085544,24.065725 3.4079096,23.685283 C3.4079096,24.1064151 3.4079096,24.5298113 3.38079096,24.9509434 C3.33107345,25.7049057 3.27683616,26.5720755 3.99322034,27.090566 C4.35839402,27.3170287 4.76091616,27.4765013 5.1819209,27.5615094 C6.31186441,27.8671698 7.7740113,28.1071698 8.53559322,27.3984906 C8.85423729,27.1018868 8.98757062,26.6830189 9.3740113,26.4475472 C9.97062147,26.0943396 10.8180791,26.3320755 11.5706215,26.370566 C13.0188683,26.4329207 14.3865256,25.7018382 15.1412429,24.4618868 C15.7265537,23.4158491 15.7016949,22.229434 15.4983051,21.0973585 C15.4200392,21.413819 15.2999579,21.7183957 15.1412429,22.0030189 Z" id="Path" fill="url(#linearGradient-31)"></path>
                    <path d="M17.760452,1.94264151 C17.4473717,2.15999231 17.1666144,2.4206974 16.9265537,2.71698113 C16.7469918,3.02922738 16.6762319,3.39245639 16.7254237,3.74943396 C16.7638111,4.19810928 16.8587273,4.64011243 17.0079096,5.06490566 C17.2386432,4.82187158 17.4904816,4.59986596 17.760452,4.40150943 C19.1163842,3.26943396 19.4418079,1.63924528 19.0033898,0.12 C18.7712446,0.833970465 18.3399404,1.46643401 17.760452,1.94264151 Z" id="Path" fill="url(#linearGradient-32)"></path>
                    <path d="M17.360452,12.1969811 C16.6282486,12.7516981 15.5525424,13.0732075 15.100565,13.7818868 C14.890889,14.1425158 14.7977392,14.5593168 14.8338983,14.9750943 C14.8509548,15.4548119 14.9099374,15.9321092 15.0101695,16.4015094 C15.0372221,16.346244 15.067403,16.2925717 15.100565,16.2407547 C15.5525424,15.5366038 16.6282486,15.2128302 17.360452,14.6558491 C18.6101695,13.7049057 18.7163842,12.1992453 18.3457627,10.8566038 C18.1567801,11.3911479 17.8139041,11.8575827 17.360452,12.1969811 Z" id="Path" fill="url(#linearGradient-33)"></path>
                </g>
                <path d="M132.99209,105.303396 C132.146893,107.433962 131.053107,108.273962 131.053107,108.273962 L130.445198,108.273962 L125.093785,108.328302 L124.474576,106.648302 L125.342373,103.02566 L125.875706,103.059623 C126.197327,103.228775 126.546149,103.339904 126.906215,103.387925 C127.297175,103.387925 128.061017,103.367547 128.287006,103.469434 C128.318847,103.483833 128.354206,103.488557 128.388701,103.483019 C128.589831,103.462642 128.80452,103.161509 128.80452,103.161509 C128.80452,103.161509 133.837288,103.170566 132.99209,105.303396 Z" id="Path" fill="url(#linearGradient-34)"></path>
                <g id="Group" opacity="0.1" transform="translate(128.361582, 103.018868)" fill="url(#linearGradient-35)">
                    <path d="M4.63050847,2.2845283 C3.78531073,4.41509434 2.69152542,5.25509434 2.69152542,5.25509434 L2.08361582,5.25509434 C2.4,4.41056604 3.06892655,2.67622642 3.33107345,2.27773585 C3.59322034,1.87924528 1.34011299,0.955471698 0.0293785311,0.446037736 C0.230508475,0.425660377 0.44519774,0.124528302 0.44519774,0.124528302 C0.44519774,0.124528302 5.47570621,0.151698113 4.63050847,2.2845283 Z" id="Path"></path>
                </g>
                <path d="M128.632768,106.953962 C128.632768,106.953962 131.570621,108.869434 132.700565,107.846038 C133.830508,106.822642 133.679096,104.866415 133.527684,104.556226 C133.376271,104.246038 132.171751,100.25434 132.171751,100.25434 L129.850847,94.3516981 C129.850847,94.3516981 128.442938,86.5833962 126.341243,88.5215094 C124.239548,90.4596226 127.471186,95.1101887 127.471186,95.1101887 C127.471186,95.1101887 128.79774,98.5064151 128.729944,99.1856604 C128.662147,99.8649057 129.468927,102.355472 129.468927,102.355472 L128.632768,106.953962 Z" id="Path" fill="#EFB7B9"></path>
                <path d="M123.134463,176.16 C123.111864,176.255094 123.084746,176.354717 123.057627,176.456604 C122.781921,177.400755 122.264407,177.187925 120.743503,178.743396 C119.972561,179.569333 118.808529,179.899678 117.719774,179.601509 C117.548763,179.555225 117.43485,179.393544 117.448588,179.216604 L117.638418,176.69434 L117.731073,175.480755 C117.731073,175.480755 120.153672,176.16 121.385311,175.297358 C121.425989,175.267925 121.466667,175.238491 121.505085,175.204528 C121.5174,175.195957 121.528764,175.186089 121.538983,175.175094 C121.865659,174.904734 122.327865,174.87268 122.688606,175.095368 C123.049346,175.318057 123.228603,175.746092 123.134463,176.16 Z" id="Path" fill="#008AAB"></path>
                <path d="M115.529944,175.209057 C115.509605,175.304151 115.482486,175.401509 115.455367,175.503396 C115.179661,176.449811 114.662147,176.234717 113.141243,177.790189 C112.370849,178.617026 111.206274,178.947524 110.117514,178.648302 C109.94595,178.602813 109.831658,178.440593 109.846328,178.263396 L110.036158,175.741132 L110.128814,174.527547 C110.128814,174.527547 112.551412,175.206792 113.783051,174.344151 C113.824577,174.316149 113.86456,174.285916 113.902825,174.253585 L113.936723,174.221887 C114.263833,173.952714 114.725581,173.921731 115.085596,174.144798 C115.44561,174.367865 115.6242,174.795606 115.529944,175.209057 Z" id="Path" fill="#008AAB"></path>
                <path d="M113.028249,175.58717 L113.127684,176.898113 C111.737853,178.288302 110.081356,176.218868 109.59322,175.539623 C110.872316,176.191698 113.028249,175.58717 113.028249,175.58717 Z" id="Path" fill="#000000" opacity="0.1"></path>
                <path d="M121.2,176.119245 L121.383051,175.999245 C120.112994,177.93283 118.219209,177.040755 117.638418,176.69434 L117.731073,175.480755 C117.731073,175.480755 120.153672,176.16 121.385311,175.297358 C121.288136,175.770566 121.2,176.119245 121.2,176.119245 Z" id="Path" fill="#000000" opacity="0.1"></path>
                <path d="M125.064407,139.512453 C124.090395,141.950943 123.116384,150.122264 122.99661,151.059623 C122.876836,151.996981 122.903955,155.875472 122.903955,155.875472 L122.659887,165.384906 C122.630508,166.573585 121.755932,169.562264 121.755932,169.562264 C121.755932,169.562264 121.453107,172.05283 121.60452,172.886038 C121.755932,173.719245 121.20904,175.874717 121.20904,175.874717 L121.39209,175.752453 C119.871186,178.068679 117.466667,176.332075 117.466667,176.332075 C117.466667,176.332075 116.888136,173.526792 117.496045,172.824906 C118.103955,172.123019 117.283616,169.958491 117.283616,169.958491 C117.283616,169.958491 117.588701,158.707925 117.679096,158.184906 C117.769492,157.661887 117.312994,156.081509 116.888136,154.770566 C116.463277,153.459623 117.132203,148.274717 117.283616,147.330566 C117.435028,146.386415 117.222599,142.084528 117.071186,141.201509 C116.919774,140.318491 117.251977,136.627925 117.251977,136.627925 C116.644068,134.798491 116.158192,136.444528 116.158192,136.444528 L115.670056,141.230943 L115.143503,151.059623 C115.143503,151.059623 115.20452,154.046038 114.748023,154.908679 C114.291525,155.771321 113.898305,157.94717 113.898305,157.94717 L114.110734,169.041509 C114.110734,169.041509 114.081356,171.36 114.232768,172.243019 C114.384181,173.126038 113.898305,175.41283 113.898305,175.41283 C112.19435,179.436226 109.455367,175.077736 109.455367,175.077736 C109.455367,175.077736 109.577401,174.398491 109.819209,174.314717 C110.061017,174.230943 109.728814,172.575849 109.545763,172.301887 C109.362712,172.027925 109.577401,170.037736 109.577401,170.037736 C109.577401,170.037736 109.351412,168.237736 109.028249,166.073208 C108.705085,163.908679 108.786441,155.553962 108.99887,155.035472 C109.211299,154.516981 109.39435,152.107925 109.39435,152.107925 C109.39435,152.107925 109.150282,150.735849 109.455367,149.76 C109.760452,148.784151 108.725424,144.667925 108.725424,144.210566 C108.725424,143.753208 108.329944,140.918491 108.115254,140.61283 C107.975508,140.350115 107.902547,140.05694 107.902825,139.759245 C107.902825,139.759245 107.873446,139.150189 107.355932,137.320755 C106.978531,135.984906 107.2,133.351698 107.355932,132.024906 C107.410169,131.533585 107.455367,131.221132 107.455367,131.221132 C107.455367,131.221132 124.924294,128.386415 125.624859,129.02717 C125.787571,129.176604 125.898305,129.706415 125.959322,130.433208 C126.146893,132.864906 125.812429,137.630943 125.064407,139.512453 Z" id="Path" fill="#444053"></path>
                <path d="M118.461017,153.210566 C118.542373,153.210566 120.470056,153.373585 121.172881,153.230943 C121.875706,153.088302 118.461017,153.210566 118.461017,153.210566 Z" id="Path" fill="#000000" opacity="0.1"></path>
                <path d="M118.60339,154.349434 C118.60339,154.349434 121.261017,154.818113 121.40339,154.575849 C121.545763,154.333585 118.60339,154.349434 118.60339,154.349434 Z" id="Path" fill="#000000" opacity="0.1"></path>
                <path d="M110.467797,153.862642 C110.467797,153.862642 111.846328,153.923774 112.59661,154.267925 C113.346893,154.612075 110.467797,153.862642 110.467797,153.862642 Z" id="Path" fill="#000000" opacity="0.1"></path>
                <path d="M105.455367,119.671698 C105.455367,119.671698 105.681356,123.919245 105.557062,124.670943 C105.557062,124.670943 106.045198,128.107925 106.449718,128.97283 C106.813113,129.669097 107.241383,130.329393 107.728814,130.944906 L108.926554,122.517736 L108.644068,119.630943 L105.455367,119.671698 Z" id="Path" fill="#EFB7B9"></path>
                <ellipse id="Oval" fill="#EFB7B9" cx="118.036158" cy="95.6241509" rx="4.68700565" ry="4.69584906"></ellipse>
                <path d="M115.6,97.8203774 C115.6,97.8203774 114.140113,100.684528 112.677966,102.02717 C111.215819,103.369811 121.444068,104.893585 121.688136,104.893585 C121.932203,104.893585 119.862147,98.7939623 120.225989,98.0626415 C120.589831,97.3313208 115.6,97.8203774 115.6,97.8203774 Z" id="Path" fill="#EFB7B9"></path>
                <path d="M125.948023,130.455849 C125.719082,130.631684 125.466491,130.774225 125.19774,130.879245 C123.331073,131.610566 121.301695,132.62717 119.920904,132.219623 C118.540113,131.812075 115.627119,132.219623 115.627119,132.219623 C115.627119,132.219623 109.751412,131.73283 108.567232,132.015849 C108.169599,132.135751 107.746801,132.144363 107.344633,132.040755 C107.39887,131.549434 107.444068,131.236981 107.444068,131.236981 C107.444068,131.236981 124.912994,128.402264 125.613559,129.043019 C125.776271,129.192453 125.887006,129.710943 125.948023,130.455849 Z" id="Path" fill="#000000" opacity="0.1"></path>
                <path d="M127.231638,127.738868 C127.231638,127.738868 127.068927,129.776604 125.19774,130.503396 C123.326554,131.230189 121.301695,132.251321 119.920904,131.846038 C118.540113,131.440755 115.627119,131.846038 115.627119,131.846038 C115.627119,131.846038 109.751412,131.356981 108.567232,131.642264 C107.383051,131.927547 106.781921,131.560755 107.145763,131.030943 C107.509605,130.501132 107.471186,128.766792 107.471186,128.024151 C107.471186,127.281509 107.064407,124.324528 107.430508,123.794717 C107.79661,123.264906 108.108475,121.233962 108.851977,120.907925 C109.073092,120.813581 109.239399,120.623633 109.303955,120.391698 C109.366722,120.148145 109.366722,119.89261 109.303955,119.649057 C109.303955,119.649057 109.181921,119.54717 109.010169,119.395472 C108.580791,119.010566 107.853107,118.297358 108.088136,118.064151 C108.411299,117.738113 108.088136,115.623396 108.088136,115.623396 C108.088136,115.623396 107.315254,113.997736 107.6,113.388679 C107.884746,112.779623 105.114124,109.566792 105.114124,109.566792 C105.114124,109.566792 105.114124,104.037736 108.442938,103.793208 C108.442938,103.793208 110.79548,103.874717 111.080226,102.817358 C111.364972,101.76 113.231638,101.150943 113.231638,101.150943 L117.491525,102.086038 C117.491525,102.086038 121.265537,102.898868 121.954802,102.412075 C122.644068,101.925283 123.163842,103.059623 123.163842,103.059623 C123.163842,103.059623 125.516384,103.181887 125.760452,103.668679 C126.00452,104.155472 124.989831,108.912453 124.989831,108.912453 C124.989831,108.912453 123.285876,108.751698 123.40791,110.581132 C123.529944,112.410566 122.757062,114.726792 122.757062,114.726792 C122.757062,114.726792 122.635028,116.069434 122.716384,116.352453 C122.79774,116.635472 122.555932,117.638491 122.519774,117.796981 L122.519774,117.817358 C122.519774,117.817358 122.352542,118.496604 122.571751,118.738868 C122.591296,118.761435 122.615106,118.779903 122.641808,118.793208 C122.967232,118.953962 123.455367,120.541132 123.455367,120.541132 C123.70814,120.848544 123.83782,121.239125 123.819209,121.636981 C123.778531,122.289057 124.022599,123.833208 125.077966,124.727547 C126.133333,125.621887 127.231638,127.738868 127.231638,127.738868 Z" id="Path" fill="#3EB7F9"></path>
                <path d="M109.127684,118.329057 L109.127684,118.501132 L109.053107,120.403019 C109.053107,120.403019 106.567232,120.606792 105.211299,120.260377 C103.855367,119.913962 104.424859,118.41283 104.476836,118.098113 C104.517514,117.81283 104.883616,115.433208 104.883616,115.048302 C104.883616,114.663396 104.883616,113.076226 104.822599,112.344906 C104.761582,111.613585 105.125424,109.580377 105.125424,109.580377 L105.389831,109.25434 L108.250847,110.352453 L109.127684,118.329057 Z" id="Path" fill="#3EB7F9"></path>
                <path d="M109.120904,118.501132 L109.046328,120.403019 C109.046328,120.403019 106.560452,120.606792 105.20452,120.260377 C103.848588,119.913962 104.418079,118.41283 104.470056,118.098113 L109.120904,118.501132 Z" id="Path" fill="#000000" opacity="0.1"></path>
                <path d="M109.301695,120.393962 C109.364462,120.150409 109.364462,119.894874 109.301695,119.651321 C109.301695,119.651321 109.179661,119.549434 109.00791,119.397736 C111.159322,119.098868 119.667797,117.928302 122.535593,117.81283 L122.535593,117.833208 C122.535593,117.833208 122.368362,118.512453 122.587571,118.754717 L109.301695,120.393962 Z" id="Path" fill="#000000" opacity="0.1"></path>
                <path d="M122.842938,121.86566 C122.842938,121.86566 123.371751,124.85434 121.40339,125.911698 C121.40339,125.911698 122.519774,124.428679 122.842938,121.86566 Z" id="Path" fill="#000000" opacity="0.1"></path>
                <path d="M109.959322,125.993208 C109.959322,125.993208 114.705085,125.180377 115.640678,125.809811 C116.576271,126.439245 109.959322,125.993208 109.959322,125.993208 Z" id="Path" fill="#000000" opacity="0.1"></path>
                <path d="M121.2,107.474717 C121.2,107.474717 120.470056,110.483774 121.016949,111.17434 C121.563842,111.864906 121.2,107.474717 121.2,107.474717 Z" id="Path" fill="#000000" opacity="0.1"></path>
                <path d="M107.444068,105.015849 C107.444068,105.015849 108.122034,106.132075 107.708475,107.291321 C107.294915,108.450566 107.444068,105.015849 107.444068,105.015849 Z" id="Path" fill="#000000" opacity="0.1"></path>
                <path d="M106.065537,114.81283 C106.065537,114.81283 106.917514,115.322264 106.632768,116.114717 C106.348023,116.90717 106.065537,114.81283 106.065537,114.81283 Z" id="Path" fill="#008AAB"></path>
                <path d="M105.988701,112.496604 C105.988701,112.496604 106.779661,112.922264 106.881356,113.551698 C106.983051,114.181132 105.988701,112.496604 105.988701,112.496604 Z" id="Path" fill="#000000" opacity="0.1"></path>
                <path d="M117.710734,136.806792 C117.710734,136.806792 122.682486,137.316226 123.674576,136.127547 C123.674576,136.136604 119.19096,137.021887 117.710734,136.806792 Z" id="Path" fill="#000000" opacity="0.1"></path>
                <path d="M109.127684,136.521509 C109.127684,136.521509 114.463277,137.782642 115.518644,136.786415 C115.518644,136.795472 110.933333,137.13283 109.127684,136.521509 Z" id="Path" fill="#000000" opacity="0.1"></path>
                <path d="M118.094915,138.45283 C118.094915,138.45283 120.327684,138.45283 121.362712,138.513962 C122.39774,138.575094 118.094915,138.45283 118.094915,138.45283 Z" id="Path" fill="#000000" opacity="0.1"></path>
                <path d="M109.493785,139.408302 C109.493785,139.408302 110.589831,140.649057 111.825989,140.424906 C113.062147,140.200755 109.493785,139.408302 109.493785,139.408302 Z" id="Path" fill="#000000" opacity="0.1"></path>
                <path d="M111.638418,88.6279245 C111.294915,89.1622642 111.283616,89.7803774 111.186441,90.3735849 C110.940502,91.8244345 110.261286,93.166484 109.238418,94.2226415 C108.266667,95.2596226 106.931073,96.1992453 106.677966,97.4649057 C106.440678,98.6671698 107.249718,99.8241509 107.674576,100.994717 C108.80452,104.080755 107.222599,107.318491 106.770621,110.504151 C106.644068,111.384906 106.79548,112.510189 107.877966,112.802264 C108.216949,112.89283 108.60339,112.881509 108.908475,113.028679 C109.315254,113.223396 109.439548,113.630943 109.514124,113.995472 C109.786366,115.304284 109.880629,116.64398 109.79435,117.978113 C109.744633,118.727547 109.690395,119.587925 110.39548,120.104151 C110.755649,120.326636 111.151793,120.484474 111.566102,120.570566 C112.677966,120.871698 114.115254,121.109434 114.865537,120.407547 C115.179661,120.113208 115.297175,119.696604 115.690395,119.463396 C116.277966,119.114717 117.111864,119.350189 117.850847,119.386415 C119.278782,119.445827 120.625643,118.721229 121.364972,117.495849 C121.963842,116.413585 121.911864,115.186415 121.690395,114.022642 C121.468927,112.858868 121.084746,111.708679 121.057627,110.531321 C121.02217,110.11976 121.113674,109.707214 121.319774,109.349434 C121.771751,108.647547 122.822599,108.328302 123.543503,107.778113 C124.899435,106.74566 124.885876,105.061132 124.39774,103.634717 C123.909605,102.208302 123.025989,100.863396 122.917514,99.3984906 C122.869689,99.0447303 122.939585,98.6850399 123.116384,98.3750943 C123.360282,98.0879934 123.642392,97.8358244 123.954802,97.6256604 C125.923164,95.9615094 125.690395,93.2264151 124.063277,91.3562264 C122.259887,89.2732075 114.101695,84.8060377 111.638418,88.6279245 Z" id="Path" fill="#FFBF00"></path>
                <g id="Group" opacity="0.1" transform="translate(106.440678, 93.283019)" fill="#000000">
                    <path d="M1.49830508,9.01132075 C1.69005279,7.78208524 1.58307353,6.524649 1.18644068,5.34566038 C0.974011299,4.75471698 0.662146893,4.16830189 0.433898305,3.57735849 C0.321855372,3.79149671 0.239730469,4.02005187 0.189830508,4.25660377 C-0.0474576271,5.45886792 0.761581921,6.61584906 1.18644068,7.78641509 C1.33086861,8.18328741 1.43534267,8.59362875 1.49830508,9.01132075 Z" id="Path"></path>
                    <path d="M3.31073446,22.3290566 C3.39701339,20.994923 3.30274993,19.6552273 3.03050847,18.3464151 C2.9559322,17.9818868 2.83163842,17.5743396 2.42485876,17.3796226 C2.11977401,17.2324528 1.73333333,17.2437736 1.39435028,17.1532075 C0.975696615,17.0496008 0.627071287,16.7603377 0.447457627,16.3675472 C0.386440678,16.6754717 0.33220339,16.9856604 0.28700565,17.2935849 C0.160451977,18.1743396 0.311864407,19.2996226 1.39435028,19.5916981 C1.73333333,19.6822642 2.11977401,19.6709434 2.42485876,19.8181132 C2.83163842,20.0150943 2.9559322,20.4203774 3.03050847,20.7871698 C3.15593305,21.3939477 3.2434851,22.0079684 3.29265537,22.6256604 C3.29717514,22.5260377 3.3039548,22.4264151 3.31073446,22.3290566 Z" id="Path"></path>
                    <path d="M14.8813559,21.8467925 C14.1423756,23.07254 12.7952792,23.7972653 11.3672316,23.7373585 C10.6282486,23.7011321 9.78531073,23.4656604 9.20677966,23.8143396 C8.81581921,24.0407547 8.6960452,24.4641509 8.3819209,24.7584906 C7.63163842,25.4603774 6.19435028,25.2226415 5.08248588,24.9215094 C4.66833703,24.8360538 4.27269976,24.6773469 3.91412429,24.4528302 C3.60773381,24.2269176 3.40042851,23.8910335 3.33559322,23.5154717 C3.33559322,23.9320755 3.33559322,24.3509434 3.31073446,24.7675472 C3.26101695,25.5169811 3.20677966,26.3773585 3.91412429,26.8935849 C4.27339262,27.1162437 4.6688271,27.2741029 5.08248588,27.36 C6.19435028,27.6611321 7.63163842,27.8988679 8.3819209,27.1992453 C8.6960452,26.9026415 8.81581921,26.4860377 9.20677966,26.2528302 C9.79435028,25.9041509 10.6282486,26.1396226 11.3672316,26.1758491 C12.7952792,26.2357558 14.1423756,25.5110305 14.8813559,24.285283 C15.4576271,23.2460377 15.4327684,22.0709434 15.2316384,20.9479245 C15.1547206,21.2616387 15.0369496,21.5638535 14.8813559,21.8467925 Z" id="Path"></path>
                    <path d="M17.4531073,1.95849057 C17.1448602,2.17424983 16.8686706,2.43266562 16.6327684,2.72603774 C16.4559692,3.03598327 16.3860729,3.39567369 16.4338983,3.74943396 C16.4737138,4.1947358 16.5678232,4.63347465 16.7141243,5.05584906 C16.939574,4.81379176 17.1869629,4.593223 17.4531073,4.39698113 C18.7841808,3.26490566 19.1073446,1.65735849 18.6757062,0.151698113 C18.4486534,0.85852999 18.0244136,1.48548391 17.4531073,1.95849057 Z" id="Path"></path>
                    <path d="M17.059887,12.1290566 C16.3389831,12.6792453 15.2881356,12.9984906 14.8361582,13.6981132 C14.6308303,14.0570201 14.5393966,14.4700382 14.5740113,14.8822642 C14.5914297,15.3580869 14.6496479,15.8315284 14.7480226,16.2973585 C14.7729407,16.2421595 14.8024219,16.1891446 14.8361582,16.1388679 C15.2881356,15.4369811 16.3389831,15.1177358 17.059887,14.5675472 C18.2892655,13.6233962 18.3932203,12.1313208 18.0293785,10.8 C17.8431061,11.3285854 17.505994,11.7907256 17.059887,12.1290566 Z" id="Path"></path>
                </g>
                <path d="M132.766102,105.910189 C131.934463,108.024906 130.856497,108.853585 130.856497,108.853585 L130.257627,108.853585 L124.99435,108.907925 L124.386441,107.241509 L125.238418,103.643774 L125.764972,103.664151 C126.081382,103.831889 126.424897,103.942267 126.779661,103.990189 C127.166102,103.990189 127.909605,103.969811 128.135593,104.071698 C128.166891,104.085191 128.201267,104.089887 128.235028,104.085283 C128.433898,104.064906 128.641808,103.766038 128.641808,103.766038 C128.641808,103.766038 133.59548,103.795472 132.766102,105.910189 Z" id="Path" fill="#3EB7F9"></path>
                <path d="M132.766102,105.910189 C131.934463,108.024906 130.856497,108.853585 130.856497,108.853585 L130.257627,108.853585 C130.571751,108.015849 131.229379,106.297358 131.487006,105.910189 C131.744633,105.523019 129.527684,104.599245 128.239548,104.098868 C128.438418,104.078491 128.646328,103.779623 128.646328,103.779623 C128.646328,103.779623 133.59548,103.795472 132.766102,105.910189 Z" id="Path" fill="#000000" opacity="0.1"></path>
            </g>
        </g>
    </g>
</svg>